<svg xmlns="http://www.w3.org/2000/svg" viewBox="0 0 469.2346 463.8058"><defs><style>.cls-1{fill:#ebebeb;}.cls-2{fill:#fff;}.cls-3{fill:#f5f5f5;}.cls-4{fill:#fafafa;}.cls-5{fill:#263238;}.cls-6{fill:#ffbe9d;}.cls-7{fill:#eb996e;}.cls-8{opacity:0.78;}.cls-9{fill:#455a64;}.cls-10{opacity:0.6;}.cls-11{fill:#e8505b;}.cls-12{opacity:0.2;}</style></defs><title>3497799</title><g id="Background_Complete" data-name="Background Complete"><polygon class="cls-1" points="242.684 190.264 180.131 136.789 180.78 136.029 242.539 188.825 317.343 93.147 346.781 114.453 406.897 35.224 407.693 35.829 346.986 115.836 317.536 94.522 242.684 190.264"/><path class="cls-1" d="M44.1678,305.2478A3.3876,3.3876,0,1,1,40.78,301.86,3.3876,3.3876,0,0,1,44.1678,305.2478Z" transform="translate(-18.4761 -29.0667)"/><circle class="cls-1" cx="180.4556" cy="136.4088" r="6.6877"/><polygon class="cls-1" points="22.675 276.517 21.934 275.845 94.865 195.289 111.34 209.616 177.061 138.91 177.793 139.59 111.414 211.006 94.948 196.686 22.675 276.517"/><circle class="cls-1" cx="407.6056" cy="32.607" r="8.7201"/><path class="cls-2" d="M430.3435,58.69a34.2033,34.2033,0,0,1-3.8137,4.5744l-1.44,1.5559-.1512.1633-.1726-.1309a18.4933,18.4933,0,0,1-2.9459-2.46,18.4966,18.4966,0,0,1,3.2335,2.0676l-.3235.0324q.6787-.7576,1.4148-1.5789A34.2243,34.2243,0,0,1,430.3435,58.69Z" transform="translate(-18.4761 -29.0667)"/><path class="cls-1" d="M144.0668,150.2251c.8578-6.2317-7.937-11.358-14.5454-11.8906-3.1516-.254-6.4251.2277-9.4107-.8128-6.4686-2.2546-9.0525-10.6116-15.3644-13.2738-4.7188-1.99-10.1514-.2185-14.7261,2.0839s-9.0955,5.2-14.2064,5.527c-4.4456.2845-9.2733-1.3641-13.1628.8076-2.8984,1.6183-4.4166,4.9579-7.0881,6.9284-2.6135,1.9276-6.0227,2.3358-9.2654,2.5122s-6.6.2091-9.5526,1.561-5.3955,4.4743-4.7827,7.6635Z" transform="translate(-18.4761 -29.0667)"/><path class="cls-3" d="M379.56,45.8088c.5351-3.8871-4.9509-7.0848-9.0731-7.417-1.9658-.1585-4.0077.142-5.87-.507-4.035-1.4064-5.6467-6.6193-9.5839-8.28-2.9435-1.2414-6.3322-.1363-9.1857,1.3s-5.6736,3.2436-8.8616,3.4476c-2.7731.1775-5.7845-.8509-8.2107.5038-1.8079,1.0094-2.7549,3.0926-4.4214,4.3217a10.5451,10.5451,0,0,1-5.7795,1.567,16.2828,16.2828,0,0,0-5.9587.9738c-1.8418.8433-3.3655,2.7909-2.9833,4.78Z" transform="translate(-18.4761 -29.0667)"/><path class="cls-3" d="M453.2982,133.7748c.2878-2.09-2.6622-3.81-4.8788-3.9883a12.5531,12.5531,0,0,1-3.1565-.2726c-2.17-.7563-3.0363-3.5594-5.1534-4.4523-1.5828-.6675-3.405-.0733-4.9394.699s-3.0508,1.7441-4.7651,1.8538c-1.4912.0955-3.11-.4575-4.415.2709-.9722.5428-1.4814,1.663-2.3775,2.3239a5.67,5.67,0,0,1-3.1078.8426,8.7544,8.7544,0,0,0-3.2041.5237,2.5322,2.5322,0,0,0-1.6042,2.57Z" transform="translate(-18.4761 -29.0667)"/><path class="cls-4" d="M120.9062,79.9245c.2877-2.09-2.6622-3.81-4.8788-3.9883a12.5476,12.5476,0,0,1-3.1565-.2727c-2.17-.7562-3.0364-3.5593-5.1535-4.4522-1.5828-.6676-3.405-.0733-4.9394.699s-3.0508,1.7441-4.7651,1.8538c-1.4911.0955-3.11-.4575-4.415.2709-.9722.5428-1.4814,1.663-2.3775,2.3239a5.67,5.67,0,0,1-3.1077.8426,8.7549,8.7549,0,0,0-3.2042.5237,2.5323,2.5323,0,0,0-1.6042,2.57Z" transform="translate(-18.4761 -29.0667)"/><polygon class="cls-3" points="122.279 264.008 142.108 219.919 162.489 207.686 175.157 180.135 211.511 188.647 238.632 271.834 196.659 292.464 162.489 313.288 122.279 264.008"/><path class="cls-1" d="M487.7107,420.8225l-35.8948-71.64-16.6107-24.8672-19.5743-90.548-23.5765-19.6087-23.6917,32.97-32.3958,8.0893-29.8324,28.5428,60.0563,63.7306,35.4032,37.3243,27.6416,51.6461,53.0779,50.1673C481.7987,486.1423,487.7107,420.8225,487.7107,420.8225Z" transform="translate(-18.4761 -29.0667)"/><polygon class="cls-1" points="0 463.806 3.658 415.181 23.209 384.793 36.012 326.952 59.284 313.288 88.031 264.944 115.409 246.415 172.22 302.59 209.724 262.206 238.632 271.834 226.725 286.645 196.659 292.464 137.419 344.114 91.363 369.5 79.084 391.684 52.429 395.587 0 463.806"/></g><g id="Mountain"><path class="cls-5" d="M357.5525,447.2171a2.7246,2.7246,0,0,1-.58.0473l-1.6726.0444-6.2124.0775-21.0245.0876.1983-.0936-3.68,4.4846-15.9027,19.2359c-2.0257,2.4114-3.6782,4.3784-4.8652,5.7913L302.47,478.45a3.7192,3.7192,0,0,1-.4957.5206,3.7224,3.7224,0,0,1,.4146-.5873l1.2676-1.62,4.7373-5.8964,15.7849-19.3327,3.6854-4.48.0776-.0943.121.0005,21.0245.0877,6.2124.0774,1.6726.0444A2.7078,2.7078,0,0,1,357.5525,447.2171Z" transform="translate(-18.4761 -29.0667)"/><polygon class="cls-3" points="233.051 373.93 170.905 371.894 153.687 394.193 126.406 406.33 111.593 437.759 128.839 417.754 162.017 412.193 185.641 387.566 233.051 373.93"/><path class="cls-5" d="M18.4761,492.8725s.2945-.4108.8906-1.2l2.66-3.5012,10.3153-13.4981,38.4237-50.1271.0433-.0565.0708-.01,26.6522-3.9236-.1435.0993c3.8551-6.975,7.98-14.4379,12.2647-22.1908l.03-.0537.0538-.03L155.78,372.9735l-.0412.0288,59.2269-51.6647.0521-.0455.0679-.0131,30.0654-5.8223-.1529.0921,15.3262-19.0655,14.4974-18.0323.1012-.1259.1578.035,32.7325,7.2773.0766.0171.054.0569,93.8013,98.96.0195.0206.0132.0248L429.38,436.3844l-.0318-.0415L468.4,473.3567l10.3633,9.8539,2.66,2.5449c.5955.5732.8907.8734.8907.8734s-.3164-.2778-.9222-.84l-2.6907-2.5123-10.4221-9.7917-39.1551-36.9044-.0193-.0182-.0127-.0237c-7.977-14.8767-17.2452-32.1612-27.6816-51.6244l.0325.045-93.87-98.8949.13.0738-32.7339-7.2709.2586-.0907L260.7307,296.81l-15.3274,19.0646-.06.0742-.0935.0181-30.0665,5.8162.12-.0584L156.0507,373.36l-.0193.0168-.0222.0122c-16.3849,9.0214-31.9253,17.578-46.0672,25.3646l.0832-.0831L97.7327,420.8455l-.0473.0855-.0965.014-26.6582,3.8823.1139-.0667-38.55,50.03L22.1052,488.2318l-2.6987,3.4713C18.7973,492.4822,18.4761,492.8725,18.4761,492.8725Z" transform="translate(-18.4761 -29.0667)"/><path class="cls-5" d="M257.108,402.2321a1.2489,1.2489,0,0,1-.2521.0912l-.7545.2272-2.9343.84-11.0019,3.0652-37.9824,10.4176.1146-.068L189.33,432.4241l-8.6512,9.0137-.0592.0616-.0839.014-33.1864,5.5121.1226-.069-14.5429,16.7322-4.0294,4.5882-1.0656,1.19c-.2432.2663-.38.3929-.38.3929s.105-.154.3327-.4337l1.02-1.2293,3.9444-4.6615c3.4526-4.038,8.3893-9.8117,14.4069-16.8494l.0483-.0567.0746-.0125,33.17-5.61-.1428.0754,8.6462-9.0184L203.937,416.46l.0483-.05.0666-.0179,38.0309-10.239,11.04-2.9247,2.9559-.7608.7657-.1859A1.2475,1.2475,0,0,1,257.108,402.2321Z" transform="translate(-18.4761 -29.0667)"/><path class="cls-5" d="M332.1828,381.0373c0,.1438-13.5259.26-30.207.26-16.6869,0-30.21-.1166-30.21-.26s13.523-.26,30.21-.26C318.6569,380.7769,332.1828,380.8935,332.1828,381.0373Z" transform="translate(-18.4761 -29.0667)"/></g><g id="Character"><path class="cls-6" d="M337.221,220.0045s-.0668-5.69-.3073-5.735l-11.69,2.6008c-.123.7409-1.598,10.0732-1.3453,10.981l13.151,3.6481S337.2215,220.3346,337.221,220.0045Z" transform="translate(-18.4761 -29.0667)"/><path class="cls-6" d="M337.233,230.6336c.0222-.0118.0415-.1031.0578-.2572.1346-1.2739.0527-6.8329-.6256-7.07-.76-.2662-2.66.1685-2.7909.901s.3146,6.9894.3146,6.9894.1332.9852,1.7907,1.2243C337.0034,232.5687,337.233,230.6336,337.233,230.6336Z" transform="translate(-18.4761 -29.0667)"/><path class="cls-6" d="M333.8989,232.6328c.0219-.0116.0414-.1029.0575-.257.1347-1.2738.0529-6.8328-.6255-7.07-.76-.2663-2.66.1683-2.7909.9008s.3146,6.9893.3146,6.9893.1332.9852,1.7908,1.2246C333.6693,234.568,333.8989,232.6328,333.8989,232.6328Z" transform="translate(-18.4761 -29.0667)"/><path class="cls-6" d="M330.6365,233.6308c.022-.0117.0414-.103.0577-.257.1345-1.2739.0527-6.8328-.6255-7.07-.76-.2663-2.66.1683-2.791.9008s.3146,6.9894.3146,6.9894.1331.9853,1.7907,1.2244C330.4068,235.5658,330.6365,233.6308,330.6365,233.6308Z" transform="translate(-18.4761 -29.0667)"/><path class="cls-6" d="M327.3918,234.5688c.0219-.0116.0415-.103.0577-.257.1345-1.2739.0526-6.8329-.6256-7.07-.76-.2663-2.66.1683-2.791.9008s.3148,6.9894.3148,6.9894.133.9853,1.7905,1.2245C327.1622,236.504,327.3918,234.5688,327.3918,234.5688Z" transform="translate(-18.4761 -29.0667)"/><path class="cls-7" d="M333.8491,225.8327a10.9437,10.9437,0,0,1,.26,2.7056,10.36,10.36,0,0,1-.0863,2.6773,10.9367,10.9367,0,0,1-.26-2.7059A10.3542,10.3542,0,0,1,333.8491,225.8327Z" transform="translate(-18.4761 -29.0667)"/><path class="cls-7" d="M330.5714,225.8147a42.595,42.595,0,0,1,.2733,7.7065,42.5742,42.5742,0,0,1-.2733-7.7065Z" transform="translate(-18.4761 -29.0667)"/><g class="cls-8"><path class="cls-7" d="M327.2413,226.09a42.5967,42.5967,0,0,1,.2735,7.7066,42.5984,42.5984,0,0,1-.2735-7.7066Z" transform="translate(-18.4761 -29.0667)"/></g><path class="cls-6" d="M325.1481,217.1753s-4.627,10.5127-3.9509,11.1654a15.4368,15.4368,0,0,0,2.8471,1.655Z" transform="translate(-18.4761 -29.0667)"/><path class="cls-6" d="M299.5637,76.1762l-3.39,39.3157-19.691-1.5725c-.1225-2.2991.0419-11.1935.0419-11.1935s-8.1929-1.274-8.294-9.4652c-.0491-3.9779.52-12.2,1.118-19.6059a15.1591,15.1591,0,0,1,15.9956-13.9154h0A15.16,15.16,0,0,1,299.5637,76.1762Z" transform="translate(-18.4761 -29.0667)"/><path class="cls-7" d="M276.5106,102.6078a19.0485,19.0485,0,0,0,10.6791-3.035s-2.5243,5.8952-10.6981,5.1574Z" transform="translate(-18.4761 -29.0667)"/><path class="cls-5" d="M272.5221,79.3949a1.17,1.17,0,0,0,1.128,1.18,1.1189,1.1189,0,0,0,1.2058-1.0549,1.17,1.17,0,0,0-1.1267-1.1809A1.12,1.12,0,0,0,272.5221,79.3949Z" transform="translate(-18.4761 -29.0667)"/><path class="cls-5" d="M271.0993,77.7829c.145.1526,1.0311-.5033,2.29-.5,1.2573-.0146,2.1811.633,2.3177.4789.0671-.0683-.0806-.3437-.4828-.6366a3.2094,3.2094,0,0,0-1.8555-.5718,3.0818,3.0818,0,0,0-1.8228.5883C271.159,77.4387,271.0279,77.7145,271.0993,77.7829Z" transform="translate(-18.4761 -29.0667)"/><path class="cls-5" d="M284.6087,79.3951a1.17,1.17,0,0,0,1.128,1.18,1.1188,1.1188,0,0,0,1.2058-1.0547,1.17,1.17,0,0,0-1.127-1.1809A1.12,1.12,0,0,0,284.6087,79.3951Z" transform="translate(-18.4761 -29.0667)"/><path class="cls-5" d="M283.4728,78.0178c.1453.1526,1.0326-.5032,2.2905-.5,1.2572-.0146,2.1813.6328,2.3178.4786.0669-.0682-.0793-.3434-.4832-.6363a3.2089,3.2089,0,0,0-1.8552-.5721,3.0839,3.0839,0,0,0-1.823.5884C283.5337,77.6737,283.4018,77.95,283.4728,78.0178Z" transform="translate(-18.4761 -29.0667)"/><path class="cls-5" d="M278.9043,87.3532a8.3374,8.3374,0,0,0-2.0445-.3689c-.3215-.0331-.6257-.097-.68-.3164a1.6358,1.6358,0,0,1,.2145-.9528q.4536-1.1667.9507-2.4476a42.0657,42.0657,0,0,0,2.1349-6.4024,42.1648,42.1648,0,0,0-2.6453,6.2156q-.4764,1.2891-.91,2.4624a1.8611,1.8611,0,0,0-.1668,1.2616.8065.8065,0,0,0,.5286.47,2.1876,2.1876,0,0,0,.5458.0759A8.1853,8.1853,0,0,0,278.9043,87.3532Z" transform="translate(-18.4761 -29.0667)"/><path class="cls-5" d="M282.609,88.2241c-.2048-.012-.2074,1.3544-1.3768,2.3241-1.1675.9731-2.6242.82-2.6348,1.0107-.0189.0856.3245.2653.9392.2821a3.4026,3.4026,0,0,0,2.1993-.7663,2.9637,2.9637,0,0,0,1.0668-1.9489C282.8549,88.5546,282.7025,88.2162,282.609,88.2241Z" transform="translate(-18.4761 -29.0667)"/><path class="cls-5" d="M283.1478,73.0846c.1243.3422,1.381.18,2.8578.3581,1.4806.1483,2.6715.5807,2.8675.2738.0873-.1469-.12-.4689-.6019-.8a5.0066,5.0066,0,0,0-4.3616-.4812C283.3673,72.6534,283.0944,72.9222,283.1478,73.0846Z" transform="translate(-18.4761 -29.0667)"/><path class="cls-5" d="M271.5621,74.14c.2214.2858,1.0885-.011,2.1315-.0248,1.0421-.0506,1.9256.1919,2.1289-.1071.089-.1452-.05-.4316-.4358-.7021a3.086,3.086,0,0,0-3.4328.1061C271.5854,73.7058,271.4644,74,271.5621,74.14Z" transform="translate(-18.4761 -29.0667)"/><path class="cls-5" d="M272.2568,65.8543" transform="translate(-18.4761 -29.0667)"/><path class="cls-5" d="M305.3482,65.6882a3.0993,3.0993,0,0,0-2.5662-3.2592,3.7819,3.7819,0,0,0-5.4144-4.7557,4.9051,4.9051,0,0,0-8.6479-1.7576,5.2121,5.2121,0,0,0-8.7912,1.3912,5.7151,5.7151,0,0,0-8.4368,1.2018,7.5734,7.5734,0,0,0-2.8034-.4449,3.3778,3.3778,0,0,0-2.9471,1.8691,2.2261,2.2261,0,0,0,.8409,2.6418,2.7153,2.7153,0,1,0-1.2327,5.2783,1.5339,1.5339,0,0,0-.8452,1.4229,2.8976,2.8976,0,0,0,1.9148,2.12,10.4832,10.4832,0,0,0,7.4757-.1153c2.4173-.8137,4.659-2.081,7.0554-2.9544s6.41-2.4412,8.8157-1.593a4.3626,4.3626,0,0,1,.9637.51,6.4426,6.4426,0,0,1,2.3806,4.1529c.0081.0579.0158.1131.0228.1652.32,2.3364.2624,4.7133.6054,7.0464a10.5889,10.5889,0,0,0,2.8766,6.3146c.71.6615,1.9647,1.1165,2.5482.3416a1.9991,1.9991,0,0,0,.2916-1.0707c.315-4.0692,1.1983-7.811,1.6656-11.7923a11.4819,11.4819,0,0,1,2.2244-2.698A6.3914,6.3914,0,0,0,305.3482,65.6882Z" transform="translate(-18.4761 -29.0667)"/><path class="cls-9" d="M280.9273,61.571a2.1109,2.1109,0,0,1-.1118-1.0916,4.1979,4.1979,0,0,1,1.31-2.6889,4.2885,4.2885,0,0,1,4.307-.85,3.3178,3.3178,0,0,1,2.02,1.8119,2.3337,2.3337,0,0,1,.06,1.51,1.788,1.788,0,0,1-1.0628,1.1767,1.6842,1.6842,0,0,1-1.59-.18,1.5808,1.5808,0,0,1-.5844-1.4456,2.0316,2.0316,0,0,1,.6683-1.308,3.1333,3.1333,0,0,1,1.192-.6589,5.0164,5.0164,0,0,1,4.3632.7158,3.0332,3.0332,0,0,1,1.0634,1.3927,2.3832,2.3832,0,0,1,.0666,1.3206c-.19.723-.5942.9467-.5941.9247a2.9189,2.9189,0,0,0,.3954-.9648,2.2731,2.2731,0,0,0-.1405-1.1782,2.7939,2.7939,0,0,0-1.0078-1.1975,4.7066,4.7066,0,0,0-4-.5564,1.95,1.95,0,0,0-1.4988,1.5578,1.0718,1.0718,0,0,0,.385.9817,1.1759,1.1759,0,0,0,1.0963.11,1.5484,1.5484,0,0,0,.7119-2.0162,2.8615,2.8615,0,0,0-1.7092-1.5452,3.94,3.94,0,0,0-3.8961.6734,4.1868,4.1868,0,0,0-1.3547,2.44C280.907,61.1785,280.9733,61.5661,280.9273,61.571Z" transform="translate(-18.4761 -29.0667)"/><path class="cls-9" d="M290.8831,56.3446a1.9129,1.9129,0,0,1,.74-.14,8.0923,8.0923,0,0,1,2.0585.0531,4.7838,4.7838,0,0,1,2.7563,1.4035,3.0688,3.0688,0,0,1,.4355,3.7077,2.5635,2.5635,0,0,1-.4476.51l-.2646-.4392a2.1605,2.1605,0,0,1,1.9539.2563,2.4414,2.4414,0,0,1,1.0417,1.4779,3.496,3.496,0,0,1-.6364,2.8328,5.4615,5.4615,0,0,1-1.4022,1.3174c-.3758.2475-.6028.3471-.62.32-.02-.0306.1707-.1859.5019-.4754a6.53,6.53,0,0,0,1.2257-1.363,3.2064,3.2064,0,0,0,.4768-2.5136,1.98,1.98,0,0,0-.86-1.173,1.6722,1.6722,0,0,0-1.4886-.197l-1.3453.5382,1.0806-.9775a2.0852,2.0852,0,0,0,.3484-.3992,2.4569,2.4569,0,0,0,.3345-1.6512,2.7816,2.7816,0,0,0-.691-1.4511,4.582,4.582,0,0,0-2.4695-1.3627C291.9683,56.3024,290.881,56.45,290.8831,56.3446Z" transform="translate(-18.4761 -29.0667)"/><path class="cls-9" d="M302.74,65.0143c.0628-.0146.2086.2715.2094.78a2.7852,2.7852,0,0,1-2.4465,2.7247c-.5053.0536-.8053-.0606-.7975-.1247a5.05,5.05,0,0,0,2.1441-1.1271A5.0509,5.0509,0,0,0,302.74,65.0143Z" transform="translate(-18.4761 -29.0667)"/><path class="cls-9" d="M267.7505,60.7382a2.2124,2.2124,0,0,1,.7649-.6235,5.3568,5.3568,0,0,1,6.32.8339,3.0909,3.0909,0,0,1,.9713,2.2591,1.8888,1.8888,0,0,1-1.9307,1.78,1.4426,1.4426,0,0,1-1.17-.8862,2.1089,2.1089,0,0,1-.0848-1.3745,2.6411,2.6411,0,0,1,1.77-1.72,3.3874,3.3874,0,0,1,2.2106.0417,4.8125,4.8125,0,0,1,1.6234.9858,8.0292,8.0292,0,0,1,1.6118,2.1545,3.1691,3.1691,0,0,1,.3971.8964,4.0642,4.0642,0,0,1-.5707-.7919,9.2334,9.2334,0,0,0-1.6792-1.98,3.6015,3.6015,0,0,0-3.4381-.8518,2.1767,2.1767,0,0,0-1.4316,1.3971c-.1985.6636.1138,1.5578.8126,1.611a1.3936,1.3936,0,0,0,1.3707-1.2955,2.641,2.641,0,0,0-.81-1.8942,4.9666,4.9666,0,0,0-3.3688-1.4684,5.4966,5.4966,0,0,0-2.51.4831A9.39,9.39,0,0,1,267.7505,60.7382Z" transform="translate(-18.4761 -29.0667)"/><path class="cls-6" d="M296.8021,79.8826c.14-.0606,5.6283-1.6648,5.4494,3.9355s-5.7644,4.2654-5.7691,4.1045S296.8021,79.8826,296.8021,79.8826Z" transform="translate(-18.4761 -29.0667)"/><path class="cls-7" d="M298.2609,85.8556c.0252-.0172.0956.0714.258.1522a.976.976,0,0,0,.7287.0384,2.415,2.415,0,0,0,1.186-2.13,3.2211,3.2211,0,0,0-.2283-1.4055,1.1272,1.1272,0,0,0-.71-.7723.497.497,0,0,0-.5844.2489c-.08.1543-.048.2671-.078.2758-.0161.0134-.1172-.0976-.0647-.3277A.6238.6238,0,0,1,299,81.5916a.7383.7383,0,0,1,.5442-.1253,1.3718,1.3718,0,0,1,.9913.9009,3.3148,3.3148,0,0,1,.2884,1.5717,2.534,2.534,0,0,1-1.5,2.3728,1.0448,1.0448,0,0,1-.8874-.1766C298.2668,85.9913,298.2412,85.8651,298.2609,85.8556Z" transform="translate(-18.4761 -29.0667)"/><path class="cls-5" d="M262.0676,352.0809l3.638,16.7561s-15.81,9.3253-15.4393,12.4875l32.7426-5.8869-4.597-26.341Z" transform="translate(-18.4761 -29.0667)"/><path class="cls-9" d="M283.0089,375.4377l-.5672-2.6369-31.1811,6.63s-1.3436.8963-.9943,1.8934Z" transform="translate(-18.4761 -29.0667)"/><path class="cls-5" d="M299.3069,353.9247l.5406,17.138s-17.2385,6.3051-17.4471,9.4821l33.2673.1455.2538-26.738Z" transform="translate(-18.4761 -29.0667)"/><g class="cls-10"><path class="cls-9" d="M315.6677,380.69l-.08-2.696-31.8665.8686s-1.4837.6378-1.321,1.6818Z" transform="translate(-18.4761 -29.0667)"/></g><path class="cls-5" d="M260.2747,366.4529s-17.0532-83.6552-17.0669-85.33l30.4621-16.106,11.7965,98.176Z" transform="translate(-18.4761 -29.0667)"/><path class="cls-5" d="M298.6352,369.2558,275.079,224.2635V192.9907l32.1816,2.9869c.4061,1.2184,10.9416,173.47,10.9416,173.47l-3.3214-.1922H298.6352" transform="translate(-18.4761 -29.0667)"/><polygon class="cls-5" points="238.086 161.712 224.732 252.057 254.586 244.816 266.756 164.649 238.086 161.712"/><path class="cls-9" d="M284.1806,198.4383s.0042.151.0329.4433l.1372,1.296.5675,4.9791c.51,4.3219,1.2779,10.5723,2.2827,18.2884,1.9919,15.4347,5.0164,36.7194,8.2641,60.2377,1.6187,11.7644,3.1053,22.9772,4.3743,33.1875.3278,2.553.588,5.0457.9492,7.4617q.5541,3.6129,1.075,7.0082c.6853,4.522,1.3238,8.735,1.9069,12.5827,1.1557,7.6941,2.0691,13.9235,2.6677,18.2327.2992,2.1545.52,3.8291.6515,4.9661.0658.5684.11,1.0027.1286,1.2948a2.0864,2.0864,0,0,1,.0041.3285c-.0093.0936-.053-.0064-.05.0126a.1155.1155,0,0,0,.0115.0267c.01.0335.0631.0078.06-.0351a1.6577,1.6577,0,0,0,.017-.3344c-.0051-.2946-.0355-.731-.0882-1.3017-.1054-1.1414-.3006-2.82-.5756-4.9786-.55-4.3171-1.42-10.5537-2.539-18.2539-.5681-3.85-1.19-8.0662-1.8577-12.5912q-.51-3.3934-1.0548-7.0118c-.3532-2.4052-.6086-4.9048-.9307-7.4546-1.2484-10.2129-2.7242-21.431-4.3429-33.196-3.2481-23.5205-6.3178-44.7968-8.383-60.22-1.0167-7.7018-1.84-13.94-2.4116-18.27-.2779-2.1452-.4945-3.8169-.6438-4.9694-.0765-.5562-.1354-.9844-.1777-1.2912C284.2128,198.586,284.1806,198.4383,284.1806,198.4383Z" transform="translate(-18.4761 -29.0667)"/><path class="cls-9" d="M266.2232,365.6769s-.0119-.1467-.0555-.4294c-.0484-.298-.1162-.7149-.2037-1.2533-.1909-1.1167-.4675-2.7354-.8225-4.8121-.7348-4.1922-1.7933-10.23-3.1-17.6853-2.6593-14.94-6.3283-35.5537-10.3806-58.3211a13.5675,13.5675,0,0,1-.2513-4.2254c.1788-1.3971.4124-2.8109.618-4.1995q.6461-4.1748,1.272-8.2205c.8486-5.3872,1.6854-10.5807,2.5108-15.5235,1.6432-9.8866,3.23-18.7715,4.6478-26.2164,1.4206-7.4442,2.6659-13.45,3.6138-17.5806.4479-2.0714.8535-3.6659,1.1048-4.7531q.1845-.797.2862-1.2367c.0623-.2793.084-.425.084-.425s-.0489.1387-.1246.4145c-.0773.2917-.1857.7-.3257,1.2271-.2772,1.0809-.7082,2.6705-1.18,4.7373-.9962,4.1217-2.2853,10.1215-3.743,17.5615-1.4546,7.4408-3.0716,16.3233-4.7356,26.209-.8359,4.9423-1.6807,10.1358-2.5351,15.5234q-.6285,4.0428-1.2784,8.2216c-.2075,1.3974-.4381,2.784-.6221,4.22a13.9771,13.9771,0,0,0,.2568,4.3484l10.4972,58.2918c1.3607,7.4445,2.4628,13.4744,3.2281,17.6608l.8981,4.7985q.1572.8031.2438,1.2462C266.1836,365.5351,266.2232,365.6769,266.2232,365.6769Z" transform="translate(-18.4761 -29.0667)"/><path class="cls-9" d="M275.079,223.2406c-.1118.0177,1.28,9.3848,3.108,20.9194,1.8287,11.5386,3.4013,20.875,3.5131,20.8573s-1.28-9.3829-3.1083-20.9214C276.7638,232.5613,275.1908,223.2229,275.079,223.2406Z" transform="translate(-18.4761 -29.0667)"/><path class="cls-9" d="M298.353,368.9958a2.8842,2.8842,0,0,0,.7715.134c.4988.06,1.2222.1286,2.1172.1983,1.79.14,4.2678.2717,7.0072.3176s5.2217-.0052,7.0152-.0861c.8968-.04,1.6219-.0844,2.1224-.1283a2.8891,2.8891,0,0,0,.7754-.1084,22.6749,22.6749,0,0,0-2.9047-.053c-1.7924.0067-4.2676.01-7.0015-.034s-5.2064-.1312-6.9976-.1971A22.6807,22.6807,0,0,0,298.353,368.9958Z" transform="translate(-18.4761 -29.0667)"/><path class="cls-9" d="M260.2746,366.4529a4.707,4.707,0,0,0,1-.05l2.7076-.2876c2.2839-.26,5.4353-.648,8.9128-1.1s6.6246-.8832,8.8995-1.2134l2.6913-.41a5.4209,5.4209,0,0,0,.9805-.1986,4.13,4.13,0,0,0-1.0005.04c-.6408.0561-1.5661.1522-2.7083.2806-2.2845.2566-5.4366.6421-8.9153,1.0943s-6.6232.8853-8.8975,1.2193l-2.6907.4167A4.6907,4.6907,0,0,0,260.2746,366.4529Z" transform="translate(-18.4761 -29.0667)"/><path class="cls-11" d="M108.9814,50.4187s13.2206-5.1593,22.2494-2.58,11.7179,8.1924,18.5414,7.7118c5.3789-.3788,9.19-2.7073,11.1245-8.4341s1.9445-12.8569,20.3146-12.1759c14.0625.5213,15.4779,2.58,15.4779,2.58l1.5083,37.4048c-7.9592-1.26-16.0926-2.1645-24.8227-.9339a10.4757,10.4757,0,0,0-8.19,8.9781c-1.0152,7.9863-9.2308,11.0974-14.1512,11.0974-7.0465,0-10.6064-4.7573-16.5779-6.1321-9.3624-2.1556-25.4739,4.4031-25.4739,4.4031Z" transform="translate(-18.4761 -29.0667)"/><polygon class="cls-7" points="185.448 99.559 177.369 98.993 177.576 111.669 186.248 118.007 187.123 117.678 187.623 103.263 185.448 99.559"/><path class="cls-5" d="M159.51,79.2451c-.1438.0027-.3805-6.1981-.5287-13.8483-.1483-7.6528-.1519-13.8568-.0081-13.86s.38,6.1968.5287,13.85C159.6505,73.0369,159.6541,79.2422,159.51,79.2451Z" transform="translate(-18.4761 -29.0667)"/><path class="cls-5" d="M144.7117,63.0328c.1439,0,.26,6.4034.26,14.3,0,7.9-.1166,14.3019-.26,14.3019s-.26-6.402-.26-14.3019C144.4514,69.4362,144.568,63.0328,144.7117,63.0328Z" transform="translate(-18.4761 -29.0667)"/><g class="cls-12"><path d="M144.7118,85.2967c-.1029,2.8725,0,6.68,0,6.68,2.0961,1.4026,6.4311,2.2507,8.8386,1.4993l.0685-.0215a9.7641,9.7641,0,0,0,6.5021-7.0384,11.1875,11.1875,0,0,0,.38-3.3277c-.8022-9.5089-1.8328-21.3594-1.5279-30.8972a15.901,15.901,0,0,1-14.6194,3.1493Z" transform="translate(-18.4761 -29.0667)"/></g><g class="cls-10"><path class="cls-2" d="M143.3863,56.7225a7.48,7.48,0,0,1-1.2279-.7022l-3.2674-2.0242a35.4524,35.4524,0,0,0-11.5489-4.8723,25.9767,25.9767,0,0,0-12.43.74,47.5833,47.5833,0,0,0-4.8473,1.97,6.6515,6.6515,0,0,1,1.1931-.7645,23.1117,23.1117,0,0,1,3.54-1.5551,25.0543,25.0543,0,0,1,12.6418-.9013,33.3621,33.3621,0,0,1,11.6466,5.0714c1.37.8812,2.4465,1.6383,3.1854,2.1683A7.2621,7.2621,0,0,1,143.3863,56.7225Z" transform="translate(-18.4761 -29.0667)"/></g><g class="cls-10"><path class="cls-2" d="M175.8781,37.6232c-.0081.09-.9951-.0343-2.5565.158a12.3905,12.3905,0,0,0-9.6269,6.7c-.7227,1.3973-.9491,2.3657-1.0362,2.3422a6.2979,6.2979,0,0,1,.7047-2.5027,11.7429,11.7429,0,0,1,9.9231-6.9061A6.2961,6.2961,0,0,1,175.8781,37.6232Z" transform="translate(-18.4761 -29.0667)"/></g><polygon class="cls-5" points="178.926 4.61 189.596 301.056 187.751 301.49 176.798 4.749 178.926 4.61"/><path class="cls-6" d="M217.13,145.409l-4.0112-14.393-14.2184-9.95s-1.6639.99.8843,4.7534l3.1806,4.4s-.0964,5.73,2.63,9.087l-.8709,7.7675Z" transform="translate(-18.4761 -29.0667)"/><path class="cls-6" d="M195.81,130.6754a15.6178,15.6178,0,0,1,4.04,3.7605,2.732,2.732,0,0,1,.2973,1.36,1.0577,1.0577,0,0,1-.5532,1.0115,1.0746,1.0746,0,0,1-.9275-.0856,3.18,3.18,0,0,1-.7349-.6188l-2.7467-2.8345a3.2688,3.2688,0,0,1-.9443-1.5544,1.0921,1.0921,0,0,1,1.5691-1.0388" transform="translate(-18.4761 -29.0667)"/><path class="cls-6" d="M195.7879,134.3543a15.6159,15.6159,0,0,1,4.04,3.76,2.7318,2.7318,0,0,1,.2973,1.36,1.0574,1.0574,0,0,1-.5532,1.0115,1.0747,1.0747,0,0,1-.9275-.0856,3.1753,3.1753,0,0,1-.7348-.6188q-1.3735-1.4172-2.7468-2.8345a3.2679,3.2679,0,0,1-.9443-1.5544,1.0921,1.0921,0,0,1,1.5691-1.0388" transform="translate(-18.4761 -29.0667)"/><path class="cls-6" d="M196.3827,138.3456a15.6171,15.6171,0,0,1,4.04,3.76,2.7318,2.7318,0,0,1,.2974,1.36,1.0576,1.0576,0,0,1-.5533,1.0115,1.0744,1.0744,0,0,1-.9274-.0856,3.18,3.18,0,0,1-.7349-.6188l-2.7467-2.8345a3.2673,3.2673,0,0,1-.9443-1.5544,1.0921,1.0921,0,0,1,1.5691-1.0388" transform="translate(-18.4761 -29.0667)"/><path class="cls-6" d="M196.4563,128.15a5.0354,5.0354,0,0,1,1.66,1.1924,1.8733,1.8733,0,0,1,.3422,2,.8647.8647,0,0,1-.6422.49,1.1109,1.1109,0,0,1-.56-.1394,5.4114,5.4114,0,0,1-1.0822-.6724,7.832,7.832,0,0,1-.9176-.9555,1.0339,1.0339,0,0,1-.2614-1.2733c.2133-.4832.425-.7659,1.4611-.6413" transform="translate(-18.4761 -29.0667)"/><polygon class="cls-6" points="197.825 109.148 219.412 128.545 212.393 144.023 187.623 117.593 197.825 109.148"/><path class="cls-11" d="M215.44,137.3755l19.2086,14.6065s17.8714-30.4778,19.45-32.3727,5.5935-3.9226,5.5935-3.9226l-2.2193,39.0771s-9.6665,24.6683-22.9308,23.3288c-10.1582-1.0259-27.715-27.8249-27.715-27.8249Z" transform="translate(-18.4761 -29.0667)"/><g class="cls-12"><path d="M234.2915,151.522a16.8683,16.8683,0,0,0-1.9425,14.052,2.0783,2.0783,0,0,0,.7774,1.2378,1.5139,1.5139,0,0,0,1.9233-.6411,4.4034,4.4034,0,0,0,.4958-2.1619,4.9744,4.9744,0,0,0,1.4191,1.8579,1.7058,1.7058,0,0,0,2.1621-.0747c.6384-.7032.2872-1.8138-.0963-2.6826q-2.4547-5.5617-4.91-11.1232" transform="translate(-18.4761 -29.0667)"/></g><path class="cls-5" d="M220.2712,141.7532a70.8428,70.8428,0,0,1-4.3971,7.3679,70.8157,70.8157,0,0,1-4.8365,7.0882,70.9058,70.9058,0,0,1,4.3976-7.3685A70.8718,70.8718,0,0,1,220.2712,141.7532Z" transform="translate(-18.4761 -29.0667)"/><path class="cls-5" d="M215.3833,141.2177c-.0524-.0441.1955-.2986.635-.1342a.8515.8515,0,1,1-1.1486.6034c.1141-.4552.4642-.5149.4709-.4468.0365.0657-.1232.2118-.1052.49.0087.2926.2434.562.5888.378a.3891.3891,0,0,0,.0227-.6992C215.6276,141.2364,215.4167,141.285,215.3833,141.2177Z" transform="translate(-18.4761 -29.0667)"/><path class="cls-5" d="M234.6712,161.241a13.7114,13.7114,0,0,1-.1431-9.237c.153.0336-.2582,2.0781-.2091,4.623C234.3487,159.1714,234.8231,161.2027,234.6712,161.241Z" transform="translate(-18.4761 -29.0667)"/><path class="cls-5" d="M238.3932,161.11a22.3938,22.3938,0,0,1-3.9107-9.0745c.1454-.0418.8466,2.0555,1.9269,4.55C237.48,159.0826,238.5234,161.033,238.3932,161.11Z" transform="translate(-18.4761 -29.0667)"/><path class="cls-11" d="M299.8766,111.9737l-2.9048-5.7417H275.97l-3.3021,6.5191-12.9761,2.9356-5.59,83.6791a5.7966,5.7966,0,0,0,.7422,3.0348h0l51.0229,1.96,2.0768.8489c1.8313-1.1277.6884-5.7908.7108-7.9808l.6535-41.4433,10.0943-33.1135Z" transform="translate(-18.4761 -29.0667)"/><g class="cls-12"><path d="M278.1065,114.8749l3.7117-3.7109q2.0855,5.0294,4.1707,10.0587a105.5521,105.5521,0,0,0,13.6629-9.5636l-14.1337,4.5355q-1.791-4.7535-3.5819-9.5071a36.2762,36.2762,0,0,1-3.5515,8.23" transform="translate(-18.4761 -29.0667)"/></g><path class="cls-11" d="M337.3123,216.9l-13.7515.7117-.03-39.4661-14.2229-22.3595,10.0943-33.1135c2.0812.8188,17.7478,40.1621,21.7377,50.8438a11.9946,11.9946,0,0,1,.7424,4.8254Z" transform="translate(-18.4761 -29.0667)"/><path class="cls-5" d="M259.692,132.9591c.1432.0141-.539,8.1066-1.5234,18.0727-.9848,9.97-1.8988,18.0375-2.042,18.0233s.5389-8.1049,1.5237-18.0745C258.6347,141.0145,259.549,132.9449,259.692,132.9591Z" transform="translate(-18.4761 -29.0667)"/><path class="cls-5" d="M281.9277,106.7147a49.6033,49.6033,0,0,1-2.501,6.7262l-.2816.6771a1.6752,1.6752,0,0,1-.4575.6967.8359.8359,0,0,1-.9109.0592,6.467,6.467,0,0,1-.5856-.3664l-1.8881-1.2788a8.51,8.51,0,0,1-1.6679-1.29,8.513,8.513,0,0,1,1.8669.98l1.9484,1.1848c.3741.2329.75.5088.9209.3107a4.2651,4.2651,0,0,0,.5742-1.1726A49.6092,49.6092,0,0,1,281.9277,106.7147Z" transform="translate(-18.4761 -29.0667)"/><path class="cls-5" d="M298.63,111.84a22.6942,22.6942,0,0,1-3.2067,1.2919c-2.0027.7351-4.781,1.7166-7.86,2.77l-1.6821.5725-.229.0779-.092-.2223c-1.0845-2.6217-2.0195-4.9432-2.6683-6.6155a17.3032,17.3032,0,0,1-.9514-2.7206,17.3191,17.3191,0,0,1,1.2659,2.5893c.7332,1.6371,1.7268,3.934,2.8289,6.5484l-.3208-.1443,1.68-.5781c3.0789-1.0536,5.8761-1.98,7.9093-2.6258A22.7014,22.7014,0,0,1,298.63,111.84Z" transform="translate(-18.4761 -29.0667)"/><path class="cls-5" d="M317.2437,123.8552c.04.1528-2.9166.9536-6.3453,2.4891-3.4379,1.5183-6.0121,3.1773-6.0988,3.0452a6.6853,6.6853,0,0,1,1.6046-1.22,32.66,32.66,0,0,1,8.8584-3.94A6.6851,6.6851,0,0,1,317.2437,123.8552Z" transform="translate(-18.4761 -29.0667)"/><path class="cls-5" d="M281.9277,106.7147a.907.907,0,0,1,.0291.25c.0089.1962.02.4376.0332.7346.02.646.0565,1.599.07,2.8266.0266,2.4551.0117,6.01-.16,10.3976-.3147,8.7781-1.4115,20.8721-3.1623,34.1505-.8519,6.6452-1.79,12.9562-2.4218,18.7174a121.2431,121.2431,0,0,0-.8322,15.3552A78.07,78.07,0,0,0,276.3,199.48c.1488,1.217.3443,2.1493.4373,2.7885.0447.2938.081.5326.1105.7268a.9169.9169,0,0,1,.02.2513.9021.9021,0,0,1-.0724-.2407c-.0431-.1916-.0961-.4273-.1614-.7174-.1264-.6337-.3544-1.5619-.5345-2.7774a71.1347,71.1347,0,0,1-.9845-10.3566,116.1384,116.1384,0,0,1,.7233-15.4144c.6074-5.7784,1.5312-12.0931,2.3824-18.7332,1.75-13.2711,2.9025-25.3385,3.3109-34.1.2184-4.38.2894-7.9284.3251-10.3812.0118-1.1937.0212-2.1372.028-2.825.0074-.2973.0135-.5389.0185-.7352A.9121.9121,0,0,1,281.9277,106.7147Z" transform="translate(-18.4761 -29.0667)"/><path class="cls-5" d="M338.0572,210.8589a51.16,51.16,0,0,1-7.2884-.0966,51.1844,51.1844,0,0,1-7.2637-.6169,51.1786,51.1786,0,0,1,7.2892.0967A51.2023,51.2023,0,0,1,338.0572,210.8589Z" transform="translate(-18.4761 -29.0667)"/><path class="cls-5" d="M325.8567,212.3963c.0457.0579-.0237.1955.0434.3728.0784.1948.22.2877.4043.1443.1792-.15.1183-.3079-.0555-.4257-.159-.1031-.3082-.0644-.3551-.1213-.0574-.0372.09-.2844.463-.2308a.667.667,0,0,1,.5049.3947.7192.7192,0,0,1-1.05.8467.6667.6667,0,0,1-.2789-.577C325.56,212.4239,325.8325,212.3323,325.8567,212.3963Z" transform="translate(-18.4761 -29.0667)"/><g class="cls-12"><path d="M309.51,155.6814q-2.2419-4.05-4.4836-8.1a111.3648,111.3648,0,0,0,2.9581,42.6929q.6918-17.21,1.3835-34.4188" transform="translate(-18.4761 -29.0667)"/></g><g class="cls-12"><path d="M246.918,131.2405a10.71,10.71,0,0,0,12.41,3.9192,3.6562,3.6562,0,0,0,2.9623,1.6554,8.5,8.5,0,0,0,3.445-.6668,26.892,26.892,0,0,0,16.7356-19.4709c-6.4685,2.2725-10.83,8.5467-17.1758,11.1425a16.2131,16.2131,0,0,1-15.4184-1.5868Z" transform="translate(-18.4761 -29.0667)"/></g><path class="cls-5" d="M286.75,140.8074a4.4371,4.4371,0,0,1,.81-.0537l2.3913-.06c2.0734-.0421,5.0717-.0913,8.6781-.1133l.2444-.0015-.0181.2458c-.232,3.1572-.501,6.817-.7876,10.7169l-.01.1431-.1277.0674-.5333.2815-5.809,3.0526-.1469.0772-.127-.1039-5.3915-4.4084-.0874-.0716.0094-.1081c.2525-2.8985.463-5.3142.6185-7.0988.0777-.7756.1415-1.4129.1926-1.9234a3.1293,3.1293,0,0,1,.0945-.6419,4.9263,4.9263,0,0,1-.004.73c-.0232.5244-.0521,1.1792-.0873,1.9762-.0987,1.7568-.2322,4.1348-.3925,6.9881l-.0779-.1794,5.44,4.3488-.2735-.0267,5.7992-3.0713c.1827-.0964.3648-.1925.5334-.2813l-.138.21c.3109-3.8982.6026-7.5561.8543-10.7118l.2261.244c-3.51-.022-6.4517-.0712-8.5389-.1133l-2.44-.06A6.6648,6.6648,0,0,1,286.75,140.8074Z" transform="translate(-18.4761 -29.0667)"/><path class="cls-5" d="M261.5224,202.8174c-.01.143-1.0766-.051-1.7645-1.0852-.7-1.0269-.4775-2.088-.3414-2.0434.15.0066.18.8974.7734,1.7526C260.7587,202.3124,261.5726,202.6762,261.5224,202.8174Z" transform="translate(-18.4761 -29.0667)"/><path class="cls-5" d="M262.8532,202.2649a4.7038,4.7038,0,0,1-1.2981-5.1355c.1519.0262-.0054,1.2324.3623,2.64C262.2628,201.1829,262.9744,202.17,262.8532,202.2649Z" transform="translate(-18.4761 -29.0667)"/><path class="cls-5" d="M301.3649,196.5118a8.5738,8.5738,0,0,1-3.5335,7.5127,29.9411,29.9411,0,0,0,2.2655-3.522A29.9383,29.9383,0,0,0,301.3649,196.5118Z" transform="translate(-18.4761 -29.0667)"/><polygon class="cls-9" points="261.91 81.913 264.67 81.913 265.851 83.967 264.693 87.165 261.945 86.852 260.867 84.539 261.91 81.913"/><path class="cls-9" d="M280.4207,115.9185s-16.6041,10.6937-25.08,6.4218c-8.4054-4.2366-18.9744-9.5049-28.4718-8.2473a45.2911,45.2911,0,0,0-15.8289,5.0322l-2.968,7.21,7.667,2.7672s11.18-5.4,19.3077-3.95c5.6849,1.0138,16.5953,6.7989,23.9462,6.2517s17.4984-5.7831,24.1762-15.1729Z" transform="translate(-18.4761 -29.0667)"/><path class="cls-5" d="M282.43,117.1071a6.7921,6.7921,0,0,1-2.0654-1.1628,6.7977,6.7977,0,0,1,2.0654,1.1628Z" transform="translate(-18.4761 -29.0667)"/><path class="cls-5" d="M284.0707,112.6727a29.5693,29.5693,0,0,1-3.812,3.1748,29.6019,29.6019,0,0,1,3.812-3.1748Z" transform="translate(-18.4761 -29.0667)"/><path class="cls-5" d="M282.8957,113.7157a7.7654,7.7654,0,0,1-2.6258-2.77c.05-.0349.5675.6455,1.2912,1.4057C282.2813,113.1143,282.9332,113.6677,282.8957,113.7157Z" transform="translate(-18.4761 -29.0667)"/><path class="cls-4" d="M269.1858,128.1784a4.161,4.161,0,0,1-.37-.8577c-.2034-.539-.4711-1.2886-.7544-2.1206s-.5291-1.59-.6969-2.1407a4.1561,4.1561,0,0,1-.2305-.9052,4.1883,4.1883,0,0,1,.37.8592c.2035.5391.4709,1.288.7541,2.12s.5284,1.5876.6963,2.1388A4.1879,4.1879,0,0,1,269.1858,128.1784Z" transform="translate(-18.4761 -29.0667)"/><path class="cls-4" d="M273.3389,125.69a18.1645,18.1645,0,0,1-1.5159-2.2889,18.1447,18.1447,0,0,1-1.3381-2.3975,36.1861,36.1861,0,0,1,2.854,4.6864Z" transform="translate(-18.4761 -29.0667)"/><path class="cls-4" d="M277.1,122.7741a25.12,25.12,0,0,1-3.2441-3.2215,25.1371,25.1371,0,0,1,3.2441,3.2215Z" transform="translate(-18.4761 -29.0667)"/><path class="cls-4" d="M280.2132,119.7074a12.141,12.141,0,0,1-2.4314-2.0412,12.1513,12.1513,0,0,1,2.4314,2.0412Z" transform="translate(-18.4761 -29.0667)"/><path class="cls-4" d="M263.2847,130.7538a31.8122,31.8122,0,0,1-.2975-3.6229,31.7481,31.7481,0,0,1-.0894-3.6343,31.7894,31.7894,0,0,1,.2974,3.6232A31.7855,31.7855,0,0,1,263.2847,130.7538Z" transform="translate(-18.4761 -29.0667)"/><path class="cls-4" d="M257.5947,131.6429c-.0571-.0077.1474-1.8643.4566-4.1462s.606-4.1262.6631-4.1185-.1475,1.8638-.4567,4.1465S257.6517,131.6506,257.5947,131.6429Z" transform="translate(-18.4761 -29.0667)"/><path class="cls-4" d="M254.227,121.6941c.0552.0162-.4791,2.0107-1.1934,4.4545s-1.3382,4.4126-1.3934,4.3964.479-2.01,1.1935-4.4549S254.1718,121.678,254.227,121.6941Z" transform="translate(-18.4761 -29.0667)"/><path class="cls-4" d="M250.364,119.87c.0546.0182-.58,2.066-1.417,4.5732s-1.56,4.5259-1.6148,4.5077.58-2.0656,1.4172-4.5737S250.31,119.8519,250.364,119.87Z" transform="translate(-18.4761 -29.0667)"/><path class="cls-4" d="M244.7669,117.252c.0555.0152-.5022,2.238-1.2454,4.9642s-1.3909,4.9251-1.4464,4.91.502-2.2375,1.2454-4.9647S244.7114,117.2369,244.7669,117.252Z" transform="translate(-18.4761 -29.0667)"/><path class="cls-4" d="M238.7829,115.6247c.0562.0124-.382,2.2095-.9786,4.9066s-1.1259,4.8745-1.1821,4.8621.382-2.209.9787-4.9071S238.7267,115.6123,238.7829,115.6247Z" transform="translate(-18.4761 -29.0667)"/><path class="cls-4" d="M232.7444,114.5753c.0576-.0005.1244,2.3364.1493,5.2191s-.0015,5.2209-.059,5.2213-.1243-2.3359-.1493-5.2195S232.6869,114.5758,232.7444,114.5753Z" transform="translate(-18.4761 -29.0667)"/><path class="cls-4" d="M227.8944,125.2206a1.8,1.8,0,0,1-.1219-.4242c-.0831-.39-.1658-.7789-.25-1.1733-.1979-.9933-.4421-2.3715-.6663-3.9007s-.3845-2.92-.48-3.9286c-.0325-.402-.0646-.7978-.0968-1.1956a1.8005,1.8005,0,0,1-.0048-.4414,1.8043,1.8043,0,0,1,.0854.433c.0541.395.1079.7881.1626,1.1873.172,1.248.3474,2.5211.5394,3.9152.2155,1.39.4122,2.66.6051,3.9048.0621.3981.1232.79.1846,1.1842A1.7958,1.7958,0,0,1,227.8944,125.2206Z" transform="translate(-18.4761 -29.0667)"/><path class="cls-4" d="M222.5232,126.3251c-.0546.0182-.8735-2.301-1.8288-5.1794s-1.6857-5.2273-1.6311-5.2454.8733,2.3,1.8289,5.18S222.5777,126.307,222.5232,126.3251Z" transform="translate(-18.4761 -29.0667)"/><path class="cls-4" d="M217.6518,128.0516c-.052.0246-1.1238-2.1248-2.3937-4.8s-2.2577-4.8653-2.2057-4.89,1.1236,2.1243,2.3939,4.8007S217.7037,128.0269,217.6518,128.0516Z" transform="translate(-18.4761 -29.0667)"/><path class="cls-4" d="M211.3319,127.4871a9.1962,9.1962,0,0,1-1.8955-3.9357c.0588-.0181.374.9093.8984,1.9917C210.854,126.6276,211.3827,127.4524,211.3319,127.4871Z" transform="translate(-18.4761 -29.0667)"/><path class="cls-2" d="M292.643,144.7211" transform="translate(-18.4761 -29.0667)"/><path class="cls-2" d="M292.189,145.3727h-.8363v-.7682h.0552Z" transform="translate(-18.4761 -29.0667)"/><rect class="cls-2" x="270.4832" y="115.359" width="1.1904" height="5.9739"/><rect class="cls-2" x="270.4916" y="120.1229" width="4.4096" height="1.2101"/><path class="cls-2" d="M294.9164,149.5319a1.8147,1.8147,0,0,1-1.6331.8677H290.786v-1.21h2.2925a.9352.9352,0,0,0,.85-.44Z" transform="translate(-18.4761 -29.0667)"/><path class="cls-2" d="M295.69,146.7463a5.3939,5.3939,0,0,1-.4644,2.3535c-.02.04-.0133.0147-.0343.0526l-.8594-1.1449a3.9537,3.9537,0,0,0,.1277-1.1623,3.7937,3.7937,0,0,0-.2806-1.6331,1.107,1.107,0,0,0-1.1041-.5689h-2.289v-1.2108h2.4973a2.5877,2.5877,0,0,1,.8965.1515,1.9926,1.9926,0,0,1,.987.8839,3.4454,3.4454,0,0,1,.4132,1.1224A6.49,6.49,0,0,1,295.69,146.7463Z" transform="translate(-18.4761 -29.0667)"/><path class="cls-2" d="M295.95,150.2628l-.9583-.76-.9877-.7828-1.861-1.4732.4426-.4089-3.4268-3.4044h1.6268v1.2108h1.3216l1.3462,1.323-.4006.4342,1.2529,1.6689.8593,1.1448Z" transform="translate(-18.4761 -29.0667)"/></g><g id="Plant"><path class="cls-11" d="M155.4764,338.8671c-1.6084,2.2972-4.7346,1.5366-6.1839.1344s-2.0622-3.4343-2.62-5.3724c-1.2742-4.428-2.5587-9.0732-1.6115-13.5823a7.5493,7.5493,0,0,1,1.7347-3.6926,3.9424,3.9424,0,0,1,3.7359-1.2432c1.576.4164,2.5558,1.96,3.2637,3.4287a32.3738,32.3738,0,0,1,3.2,13.8945,11.23,11.23,0,0,1-1.5187,6.4329" transform="translate(-18.4761 -29.0667)"/><g class="cls-12"><path d="M155.4764,338.8671c-1.6084,2.2972-4.7346,1.5366-6.1839.1344s-2.0622-3.4343-2.62-5.3724c-1.2742-4.428-2.5587-9.0732-1.6115-13.5823a7.5493,7.5493,0,0,1,1.7347-3.6926,3.9424,3.9424,0,0,1,3.7359-1.2432c1.576.4164,2.5558,1.96,3.2637,3.4287a32.3738,32.3738,0,0,1,3.2,13.8945,11.23,11.23,0,0,1-1.5187,6.4329" transform="translate(-18.4761 -29.0667)"/></g><path class="cls-11" d="M149.45,350.5006a13.9372,13.9372,0,0,0-8.6479-1.0509,7.1857,7.1857,0,0,0-4.272,1.907c-1.0676,1.1786-1.27,3.2523-.044,4.265a4.0927,4.0927,0,0,0,2.6934.6833c2.2864-.0267,4.8226-.4291,6.649.9464,1.042.7847,1.7355,2.0893,2.9815,2.4751a2.9454,2.9454,0,0,0,3.24-1.4417,5.0338,5.0338,0,0,0,.3665-3.7148A5.6712,5.6712,0,0,0,149.45,350.5006Z" transform="translate(-18.4761 -29.0667)"/><path class="cls-11" d="M159.8931,342.1633a8.3592,8.3592,0,0,1-1.3-7.6922,14.8273,14.8273,0,0,1,4.5559-6.6088,24.5289,24.5289,0,0,1,8.1584-4.8136,8.7008,8.7008,0,0,1,3.669-.6233,3.85,3.85,0,0,1,3.0791,1.863c.8585,1.6373.0354,3.6235-.8551,5.244a62.1528,62.1528,0,0,1-5.3583,8.16c-1.6063,2.0706-3.4459,4.1132-5.8937,5.0489s-4.99.8258-6.2878-.8717" transform="translate(-18.4761 -29.0667)"/><path class="cls-5" d="M155.5854,373.52a5.0032,5.0032,0,0,1-.1455-1.0439c-.074-.76-.1667-1.7136-.2774-2.8484a41.1335,41.1335,0,0,0-.6407-4.1789,32.2774,32.2774,0,0,0-1.5188-4.9316,18.1723,18.1723,0,0,0-2.5184-4.4624,9.4039,9.4039,0,0,0-3.1837-2.6467,8.9093,8.9093,0,0,0-2.6814-.8353,5.0171,5.0171,0,0,1-1.0392-.15,4.87,4.87,0,0,1,1.0575-.0165,8.1248,8.1248,0,0,1,2.7959.7276,9.3884,9.3884,0,0,1,3.3585,2.67,17.758,17.758,0,0,1,2.6105,4.5524,30.1415,30.1415,0,0,1,1.508,5.0125,35.3135,35.3135,0,0,1,.5554,4.2311c.09,1.21.1248,2.1893.1412,2.8665A4.8815,4.8815,0,0,1,155.5854,373.52Z" transform="translate(-18.4761 -29.0667)"/><path class="cls-5" d="M155.3891,371.3281a2.0611,2.0611,0,0,1-.0282-.4845c.001-.3638.0022-.8222.0037-1.385.0033-1.2019.0027-2.9415-.0616-5.09-.1063-4.2957-.4763-10.2262-1.1907-16.7444-.72-6.52-1.6734-12.3856-2.5429-16.5936-.2056-1.0549-.4124-2.0041-.6073-2.8351-.1858-.8333-.3445-1.5512-.4975-2.1321-.1315-.5471-.2387-.9929-.3238-1.3465a2.0692,2.0692,0,0,1-.0847-.478,2.0369,2.0369,0,0,1,.1685.4541c.1055.3487.2387.7879.402,1.3275.1784.5756.3612,1.2892.57,2.1188.2175.8276.4458,1.7747.6711,2.8279a157.1969,157.1969,0,0,1,2.6732,16.61c.7159,6.5318,1.0384,12.4794,1.0669,16.7863.0255,2.1536-.02,3.8965-.0753,5.1-.0342.5625-.0622,1.02-.0846,1.3843A2.0509,2.0509,0,0,1,155.3891,371.3281Z" transform="translate(-18.4761 -29.0667)"/><path class="cls-5" d="M155.36,359.8572a9.2238,9.2238,0,0,1,.01-1.4471c.0534-.93.1812-2.2735.4432-3.92a51.6649,51.6649,0,0,1,1.2749-5.7114,50.6176,50.6176,0,0,1,2.3882-6.758A35.9992,35.9992,0,0,1,166.49,331.1a17.8351,17.8351,0,0,1,1.65-1.5339c.2532-.2139.4768-.4274.7048-.5966l.64-.4411a9.1874,9.1874,0,0,1,1.2181-.78,43.1665,43.1665,0,0,0-3.9928,3.5619,37.9371,37.9371,0,0,0-6.8386,10.8821,53.9517,53.9517,0,0,0-2.402,6.6956,58.0778,58.0778,0,0,0-1.3563,5.6547c-.2989,1.63-.4718,2.96-.5761,3.8813A9.3057,9.3057,0,0,1,155.36,359.8572Z" transform="translate(-18.4761 -29.0667)"/><path class="cls-11" d="M443.8553,402.6761a6.8861,6.8861,0,0,0-4.9268,2.1936,12.1573,12.1573,0,0,0-2.7079,4.7839c-1.111,3.4-.7655,7.5025.0315,10.9894,3.8079-1.1316,6.3281-4.9895,7.4837-7.0269,1.8266-3.22,3.1721-10.1493.12-10.94" transform="translate(-18.4761 -29.0667)"/><path class="cls-11" d="M430.2692,424.76a5.8757,5.8757,0,0,0,1.0174-5.8115,7.8032,7.8032,0,0,0-4.1848-4.341,3.287,3.287,0,0,0-2.7606-.2181,2.5133,2.5133,0,0,0-1.2572,2.215,5.0979,5.0979,0,0,0,.7618,2.5345c1.4932,2.6726,3.4288,4.9849,6.4234,5.6211" transform="translate(-18.4761 -29.0667)"/><path class="cls-5" d="M429.5,435.9435a2.7057,2.7057,0,0,0,.23-.716c.1217-.4666.2848-1.1449.4607-1.99a25.2186,25.2186,0,0,0,.6-6.7272,12.6441,12.6441,0,0,0-2.1335-6.3939,8.2883,8.2883,0,0,0-1.3787-1.53,2.32,2.32,0,0,0-.6163-.435,17.5335,17.5335,0,0,1,1.76,2.1238,13.2633,13.2633,0,0,1,1.9683,6.2627,29.2262,29.2262,0,0,1-.4785,6.6477A22.7436,22.7436,0,0,0,429.5,435.9435Z" transform="translate(-18.4761 -29.0667)"/><path class="cls-5" d="M442.2294,407.8418a7.3325,7.3325,0,0,0-.6207,1.073c-.3771.7023-.9055,1.7273-1.5448,3.0009-1.2793,2.5465-2.9888,6.0938-4.78,10.0562-1.79,3.9646-3.3227,7.5924-4.3881,10.2355-.5331,1.3215-.9531,2.3953-1.2308,3.1425a7.34,7.34,0,0,0-.395,1.1747,7.3222,7.3222,0,0,0,.5394-1.1157c.3463-.7947.8-1.8359,1.3478-3.0922,1.1315-2.6133,2.7034-6.2193,4.492-10.18,1.7893-3.9585,3.4563-7.5211,4.67-10.0975.5807-1.2413,1.0622-2.27,1.43-3.0553A7.3313,7.3313,0,0,0,442.2294,407.8418Z" transform="translate(-18.4761 -29.0667)"/><path class="cls-11" d="M434.5047,428.7913a13.7464,13.7464,0,0,1,10.8807-6.2717c1.1076-.0435,2.4309.1864,2.891,1.1951.4609,1.01-.2383,2.1652-1.0182,2.9559a11.7432,11.7432,0,0,1-12.8043,2.417" transform="translate(-18.4761 -29.0667)"/><path class="cls-5" d="M443.7354,425.44a2.4721,2.4721,0,0,0-.7192-.0349,5.7786,5.7786,0,0,0-.8428.05,9.6988,9.6988,0,0,0-1.1091.1581,14.4631,14.4631,0,0,0-2.7992.8245,15.4565,15.4565,0,0,0-5.7852,4.1252,14.4711,14.4711,0,0,0-1.6916,2.3779,9.728,9.728,0,0,0-.5109.9969,5.7948,5.7948,0,0,0-.3223.78,2.4791,2.4791,0,0,0-.2014.6912c.073.0289.4173-.9367,1.2778-2.3232a16.1516,16.1516,0,0,1,1.7239-2.2772,16.3306,16.3306,0,0,1,5.6527-4.0308,16.1592,16.1592,0,0,1,2.7144-.8877C442.7137,425.529,443.739,425.518,443.7354,425.44Z" transform="translate(-18.4761 -29.0667)"/></g></svg>