<svg id="Layer_1" data-name="Layer 1" xmlns="http://www.w3.org/2000/svg" viewBox="0 0 661.44 198.29"><defs><style>.cls-1{fill:#e31d36;}.cls-2{fill:#fff;}.cls-3{font-size:90px;font-family:Helvetica-Bold, Helvetica;font-weight:700;}</style></defs><title>logo-full</title><rect class="cls-1" width="198.29" height="198.29" rx="99.14" ry="99.14"/><path class="cls-2" d="M184.89,227.75" transform="translate(-75.55 -175.65)"/><rect class="cls-2" x="54.31" y="63.64" width="16.97" height="85.16"/><rect class="cls-2" x="54.43" y="131.55" width="62.86" height="17.25"/><path class="cls-2" d="M214.78,312.08c-5.88,8.52-12.92,12.37-23.28,12.37H155.9V307.2h32.68c5.54,0,8.86-1.81,12.12-6.27Z" transform="translate(-75.55 -175.65)"/><path class="cls-2" d="M225.81,272.37q0,19.8-6.62,33.55c-.28.57-.19.21-.49.75l-12.25-16.32c1.47-5,1.82-9.9,1.82-16.57q0-15.15-4-23.28t-15.74-8.11H155.9V225.13h35.6a36.88,36.88,0,0,1,12.78,2.16q8.68,3.44,14.07,12.6a49.11,49.11,0,0,1,5.89,16A92.5,92.5,0,0,1,225.81,272.37Z" transform="translate(-75.55 -175.65)"/><path class="cls-2" d="M174.69,242.39H155.9V225.13h1.24Z" transform="translate(-75.55 -175.65)"/><path class="cls-2" d="M229.52,322.5l-13.66-10.83-14.08-11.16-26.53-21,6.31-5.83-48.85-48.53H155.9v17.26h18.79l.05,0,19.19,18.86-5.71,6.19,17.86,23.79,12.25,16.32Z" transform="translate(-75.55 -175.65)"/><text class="cls-3" transform="translate(231.34 129.82)">Digitwires</text></svg>