<?xml version="1.0" encoding="utf-8"?>
<!-- Generator: Adobe Illustrator 22.1.0, SVG Export Plug-In . SVG Version: 6.00 Build 0)  -->
<svg version="1.1" xmlns="http://www.w3.org/2000/svg" xmlns:xlink="http://www.w3.org/1999/xlink" x="0px" y="0px"
	 viewBox="0 0 3710 3710" enable-background="new 0 0 3710 3710" xml:space="preserve">
<g id="Background">
</g>
<g id="Illustration">
	<g>
		<linearGradient id="SVGID_1_" gradientUnits="userSpaceOnUse" x1="3474.5447" y1="3625.0002" x2="1540.4691" y2="1566.1461">
			<stop  offset="0" style="stop-color:#DAE3FE"/>
			<stop  offset="1" style="stop-color:#E9EFFD"/>
		</linearGradient>
		<path fill="url(#SVGID_1_)" d="M2893.8,2799c-71.4,73.6-135.3,116.9-184.2,149.5c-477,318.5-1022.3,226.7-1190.9,195.3
			c-272-50.6-501.6-86.3-698.9-264.6c-448.3-405-426.5-1249.8-83.9-1773.2c40.6-62.1,382.6-569,929.1-640.5
			c13.4-1.7,23.3-2.7,32.1-3.7c84.5-9,608.4-56.2,1035.6,301.7c61.1,51.2,159.5,143.6,250.8,284.6
			C3317.1,1563.5,3318.2,2361.6,2893.8,2799z"/>
		<g>
			<g>
				<path fill="#91B3FA" d="M1183.3,989.4c-7.6-2.9-11.9-11.1-9.8-19.1c4.7-17.5,10.2-35.1,16.4-52.3c3-8.3,12.2-12.7,20.6-9.7
					c0.1,0,0.2,0.1,0.3,0.1c8.2,3.1,12.3,12.2,9.4,20.5c-5.9,16.3-11.1,33-15.6,49.7c-2.3,8.6-11.1,13.7-19.7,11.4
					C1184.3,989.8,1183.8,989.6,1183.3,989.4z M1234.3,859.1c-0.6-0.2-1.2-0.5-1.7-0.8c-7.9-4.1-10.9-13.8-6.8-21.7
					c8.5-16.1,17.7-32.1,27.5-47.3c4.8-7.5,14.7-9.7,22.2-4.9c7.5,4.8,9.7,14.7,4.9,22.2c-9.3,14.5-18.1,29.7-26.1,45
					C1250.4,858.9,1241.8,862,1234.3,859.1z M1312.8,743.3c-1.7-0.6-3.3-1.6-4.7-2.8c-6.7-5.8-7.5-15.9-1.8-22.7
					c11.8-13.8,24.4-27.3,37.4-40c6.3-6.2,16.5-6.1,22.7,0.2c6.2,6.3,6.1,16.5-0.2,22.7c-12.3,12.1-24.3,24.9-35.5,38
					C1326.2,744,1318.9,745.7,1312.8,743.3z M1415.2,647.9c-2.8-1.1-5.3-2.9-7.1-5.4c-5.3-7.1-3.8-17.2,3.4-22.5
					c14.6-10.8,29.9-21.1,45.4-30.7c7.6-4.6,17.4-2.3,22.1,5.3c4.6,7.6,2.3,17.4-5.3,22.1c-14.7,9.1-29.2,18.9-43.1,29.1
					C1425.9,649.2,1420.1,649.8,1415.2,647.9z M1536.3,577.7c-3.9-1.5-7.2-4.5-9-8.5c-3.6-8.1,0.1-17.6,8.3-21.2
					c16.6-7.3,33.8-14,51-19.9c8.4-2.9,17.5,1.6,20.4,10c2.9,8.4-1.6,17.5-10,20.4c-16.4,5.6-32.7,11.9-48.5,18.9
					C1544.4,579.2,1540.1,579.2,1536.3,577.7z M1669.9,536.1c-5-1.9-9-6.3-10-12c-1.7-8.7,4-17.1,12.7-18.8
					c17.9-3.4,36.1-6.2,54.2-8.1c8.8-0.9,16.7,5.5,17.7,14.3c0.9,8.8-5.5,16.7-14.3,17.7c-17.2,1.8-34.5,4.4-51.5,7.7
					C1675.6,537.5,1672.6,537.2,1669.9,536.1z M2233.2,711c-2.1-0.8-4-2-5.7-3.7c-12.1-12.3-24.9-24.2-38.1-35.4
					c-6.7-5.8-7.6-15.9-1.8-22.6c5.8-6.8,15.9-7.6,22.6-1.8c13.9,11.8,27.4,24.4,40.1,37.3c6.2,6.3,6.2,16.5-0.2,22.7
					C2245.6,712,2238.9,713.2,2233.2,711z M1809.3,525.1c-6.2-2.4-10.5-8.5-10.3-15.5c0.3-8.9,7.7-15.8,16.6-15.5
					c18.2,0.6,36.5,2,54.6,4.2c8.8,1.1,15.1,9.1,14,17.9c-1.1,8.8-9.1,15.1-17.9,14c-17.1-2.1-34.6-3.4-51.8-4
					C1812.7,526.1,1810.9,525.8,1809.3,525.1z M2124.4,623.1c-1-0.4-2-0.9-2.9-1.4c-14.6-9.3-29.7-18-45.1-26.1
					c-7.9-4.1-10.9-13.8-6.8-21.7c4.1-7.9,13.8-10.9,21.7-6.8c16.1,8.4,32.1,17.7,47.4,27.4c7.5,4.8,9.7,14.7,4.9,22.2
					C2139.5,623.3,2131.4,625.8,2124.4,623.1z M1947.7,545.6c-7.6-2.9-11.9-11.1-9.8-19.1c2.3-8.6,11.1-13.7,19.7-11.4
					c17.6,4.7,35.1,10.1,52.3,16.3c0.1,0,0.2,0.1,0.3,0.1c8.1,3.1,12.3,12.2,9.4,20.4c-3,8.4-12.2,12.7-20.5,9.7
					c-16.3-5.8-33-11.1-49.7-15.5C1948.8,546,1948.2,545.8,1947.7,545.6z"/>
				<path fill="#91B3FA" d="M2304.8,798.2c-3-1.1-5.6-3.1-7.5-6c-4.7-6.9-9.5-13.7-14.5-20.4c-5.3-7.1-3.8-17.2,3.3-22.5
					c7.1-5.3,17.2-3.8,22.5,3.3c5.2,7,10.4,14.3,15.3,21.5c5,7.3,3.1,17.3-4.2,22.3C2315.1,799.5,2309.6,800,2304.8,798.2z"/>
			</g>
			<g>
				<path fill="#91B3FA" d="M2400.2,1278.5c-7.2-2.8-11.6-10.5-10-18.3c1.7-8.1,3.3-16.4,4.6-24.6c1.5-8.8,9.7-14.7,18.5-13.2
					c8.8,1.5,14.7,9.7,13.2,18.5c-1.4,8.6-3.1,17.4-4.9,25.9c-1.8,8.7-10.3,14.2-19,12.4C2401.9,1279.1,2401,1278.8,2400.2,1278.5z"
					/>
				<path fill="#91B3FA" d="M1564.6,1734.8c-6.9-2.6-13.8-5.4-20.6-8.3c-8.2-3.5-12-12.9-8.5-21s12.9-12,21-8.6
					c15.8,6.7,31.9,12.7,48,18c8.4,2.8,13,11.8,10.3,20.3c-2.8,8.4-11.8,13-20.3,10.3C1584.5,1742.2,1574.5,1738.6,1564.6,1734.8z
					 M1468.3,1688.3c-0.8-0.3-1.7-0.7-2.5-1.2c-15.4-9.1-30.6-19-45.2-29.4c-7.2-5.1-8.9-15.2-3.8-22.4c5.2-7.2,15.2-8.9,22.4-3.8
					c13.8,9.9,28.3,19.3,42.9,27.9c7.6,4.5,10.1,14.4,5.6,22C1483.8,1688.3,1475.4,1691,1468.3,1688.3z M1676.4,1766.1
					c-7.1-2.7-11.4-10.1-10-17.9c1.6-8.7,10-14.5,18.7-12.9c16.7,3,33.8,5.4,50.7,7c8.8,0.9,15.3,8.7,14.5,17.5
					c-0.8,8.8-8.7,15.3-17.5,14.5c-17.8-1.7-35.8-4.2-53.4-7.4C1678.3,1766.8,1677.3,1766.5,1676.4,1766.1z M1358.2,1605.4
					c-1.9-0.7-3.7-1.8-5.3-3.3c-13-12.3-25.7-25.3-37.6-38.6c-5.9-6.6-5.3-16.8,1.3-22.7c6.6-5.9,16.8-5.4,22.7,1.3
					c11.3,12.7,23.3,25,35.7,36.7c6.5,6.1,6.7,16.3,0.7,22.7C1371.1,1606.3,1364.1,1607.7,1358.2,1605.4z M1813.7,1775.6
					c-5.8-2.2-10-7.7-10.3-14.3c-0.4-8.9,6.5-16.4,15.4-16.7c16.9-0.7,34.1-2.2,51-4.3c8.8-1.1,16.8,5.1,18,13.9
					c1.1,8.8-5.1,16.8-13.9,18c-17.8,2.3-35.8,3.8-53.7,4.5C1817.8,1776.7,1815.7,1776.4,1813.7,1775.6z M1949.7,1754.7
					c-4.6-1.8-8.4-5.7-9.8-10.8c-2.3-8.6,2.8-17.4,11.3-19.7c16.4-4.4,32.9-9.6,48.9-15.3c8.3-3,17.5,1.3,20.6,9.7
					c3,8.3-1.3,17.5-9.7,20.6c-16.8,6.1-34.1,11.5-51.4,16.1C1956.2,1756.1,1952.8,1755.9,1949.7,1754.7z M2078,1704.7
					c-3.5-1.4-6.6-3.9-8.5-7.6c-4.1-7.9-1.1-17.6,6.8-21.7c15.1-7.9,30-16.5,44.4-25.6c7.5-4.8,17.4-2.5,22.2,5
					c4.8,7.5,2.5,17.4-5,22.2c-15.1,9.6-30.8,18.6-46.7,26.9C2086.9,1706.1,2082.2,1706.3,2078,1704.7z M2192.3,1627.8
					c-2.4-0.9-4.7-2.5-6.5-4.6c-5.7-6.8-4.9-16.9,1.9-22.6c13-11,25.7-22.7,37.7-34.7c6.3-6.3,16.4-6.3,22.7,0
					c6.3,6.3,6.3,16.4,0,22.7c-12.6,12.7-26,25-39.7,36.5C2203.8,1629,2197.6,1629.9,2192.3,1627.8z M2287,1527.7
					c-1.4-0.5-2.7-1.3-3.9-2.2c-7.1-5.3-8.5-15.4-3.1-22.5c10.2-13.6,20-27.7,29.1-42.1c4.7-7.5,14.7-9.7,22.2-5
					c7.5,4.7,9.8,14.6,5,22.2c-9.5,15.2-19.8,30.1-30.6,44.3C2301.1,1528.3,2293.5,1530.2,2287,1527.7z M2357.3,1409.4
					c-0.3-0.1-0.6-0.2-0.9-0.4c-8.1-3.7-11.6-13.2-8-21.3c5.2-11.4,10.1-23.1,14.6-34.8c1.6-4.2,3.2-8.5,4.7-12.7
					c3-8.4,12.2-12.7,20.5-9.7c8.5,2.9,12.7,12.2,9.7,20.5c-1.6,4.5-3.2,8.9-4.9,13.4c-4.7,12.3-9.9,24.6-15.3,36.6
					C2374.1,1408.8,2365.2,1412.4,2357.3,1409.4z"/>
				<path fill="#91B3FA" d="M1269,1500c-3-1.1-5.7-3.2-7.6-6c-4.9-7.2-9.6-14.7-14.2-22.2c-4.6-7.6-2.3-17.5,5.3-22.1
					c7.6-4.6,17.4-2.3,22.1,5.3c4.4,7.1,8.9,14.2,13.5,21c5,7.4,3,17.3-4.4,22.3C1279.2,1501.4,1273.7,1501.8,1269,1500z"/>
			</g>
			<g>
				<g>
					
						<linearGradient id="SVGID_2_" gradientUnits="userSpaceOnUse" x1="890.3759" y1="401.9571" x2="2364.2405" y2="3002.1943" gradientTransform="matrix(0.9338 0.3578 -0.3578 0.9338 1026.6658 -102.8253)">
						<stop  offset="0" style="stop-color:#4F52FF"/>
						<stop  offset="1" style="stop-color:#4042E2"/>
					</linearGradient>
					<path fill="url(#SVGID_2_)" d="M1355.9,1333.8c1,3,3.8,5.1,7,5.2l91.4,1.2c22.3,36.4,50.5,69.5,84.1,97.7l-12.3,90.5
						c-0.4,3.2,1.2,6.3,4.1,7.7l97.9,49.3c2.9,1.4,6.3,0.9,8.6-1.3l65.4-63.7c42.7,10.3,86.1,13.3,128.6,9.5l55.3,72.7
						c1.9,2.5,5.3,3.6,8.3,2.6l104.1-34.3c3-1,5.1-3.8,5.2-7l1.2-91.4c36.4-22.3,69.5-50.5,97.7-84.2l90.5,12.3
						c3.2,0.4,6.3-1.2,7.7-4.1l49.3-97.9c1.4-2.9,0.9-6.3-1.3-8.6l-63.7-65.4c10.3-42.7,13.3-86.1,9.5-128.6l72.7-55.3
						c2.5-1.9,3.6-5.3,2.6-8.3l-34.3-104.1c-1-3-3.8-5.1-7-5.2l-91.4-1.2c-22.3-36.4-50.5-69.5-84.1-97.7l12.3-90.5
						c0.4-3.2-1.2-6.3-4.1-7.7l-97.9-49.3c-2.9-1.4-6.3-0.9-8.6,1.3l-65.4,63.7c-42.7-10.3-86.1-13.3-128.6-9.5l-55.3-72.7
						c-1.9-2.5-5.3-3.6-8.3-2.6L1593,691.1c-3,1-5.1,3.8-5.2,7l-1.2,91.4c-36.4,22.3-69.5,50.5-97.7,84.2l-90.5-12.3
						c-3.2-0.4-6.3,1.2-7.7,4.1l-49.3,97.9c-1.4,2.9-0.9,6.3,1.3,8.6l63.7,65.4c-10.3,42.7-13.3,86.1-9.5,128.6l-72.7,55.3
						c-2.5,1.9-3.6,5.3-2.6,8.3L1355.9,1333.8z"/>
				</g>
				<path fill="#91B3FA" d="M1756.3,1233.9c-50.2-19.2-80.1-72.9-68-126.9c13.2-59.3,72.2-96.8,131.5-83.5
					c28.7,6.4,53.2,23.6,69,48.5c15.8,24.8,20.9,54.3,14.5,83.1c-13.2,59.3-72.2,96.8-131.5,83.5
					C1766.4,1237.3,1761.2,1235.8,1756.3,1233.9z M1826.1,1052.2c-3.9-1.5-7.9-2.7-12-3.6c-45.5-10.1-90.7,18.6-100.8,64
					c-10.1,45.5,18.6,90.7,64,100.8c45.5,10.1,90.7-18.6,100.8-64c4.9-22,1-44.6-11.1-63.7C1857.2,1070.2,1843,1058.6,1826.1,1052.2
					z"/>
				<path fill="#91B3FA" d="M1701.4,1383.3c-8.6-3.3-17.1-7.1-25.5-11.3l0,0c-2.6-1.3-5.2-2.7-7.8-4.1
					c-12.7-6.9-24.9-14.9-36.3-23.7c-0.2-0.1-0.3-0.2-0.5-0.4c-0.4-0.3-0.9-0.7-1.3-1c-0.9-0.7-1.7-1.4-2.5-2
					c-2.2-1.8-2.9-4.8-2-7.3c0.2-0.6,0.6-1.2,1-1.7c2.2-2.8,6.3-3.2,9-1c14.2,11.5,29.7,21.5,46.2,29.8
					c81.7,41.2,175,34.7,248.3-8.9c40.8-24.2,75.4-60,98.2-105.4c4-8,7.6-16.1,10.7-24.3c21.2-55.3,22.7-115.7,3.9-172.7
					c-21.6-65.5-67.4-118.6-128.9-149.6c-127.1-64.1-282.5-12.8-346.6,114.3c-3.9,7.8-7.5,15.8-10.6,24
					c-13.5,35.3-19.1,73.1-16.4,110.8c0.1,1-0.1,1.9-0.4,2.8c-0.9,2.3-3,3.9-5.5,4.1c-3.5,0.2-6.6-2.4-6.9-5.9
					c-2.9-39.6,3-79.3,17.2-116.3c3.3-8.5,7-16.9,11.1-25.2c67.2-133.4,230.5-187.2,363.8-120c64.6,32.6,112.7,88.4,135.3,157.1
					c19.7,59.8,18.1,123.2-4.1,181.3c-3.3,8.6-7.1,17.1-11.3,25.5c-32.6,64.6-88.4,112.7-157.1,135.3
					C1822.9,1407.1,1759.5,1405.5,1701.4,1383.3z"/>
			</g>
		</g>
		<g>
			<g>
				<path fill="#91B3FA" d="M3188.4,1373.6c2.9,2.9,3.7,7.5,1.6,11.3c-3.9,7.1-8,14.2-12.3,21.1c-2.8,4.5-8.7,5.8-13.1,3
					c-4.5-2.8-5.8-8.7-3-13.1c4.1-6.5,8-13.3,11.7-20.1c2.5-4.6,8.3-6.3,12.9-3.8C3187,1372.5,3187.7,1373,3188.4,1373.6z"/>
				<path fill="#91B3FA" d="M3147.6,1434.5c3.4,3.4,3.8,8.9,0.7,12.7c-8.8,10.8-18.2,21.3-28,31.2c-2.1,2.1-4.2,4.1-6.3,6.2
					c-3.8,3.6-9.9,3.2-13.5-0.3c-3.6-3.8-3.5-9.8,0.3-13.5c2-2,4-3.9,6-5.9c9.4-9.4,18.4-19.4,26.7-29.7c3.3-4.1,9.3-4.7,13.4-1.4
					C3147.1,1434.1,3147.3,1434.3,3147.6,1434.5z M3076.3,1503.2c0.3,0.3,0.6,0.7,0.9,1c3.2,4.2,2.3,10.2-1.9,13.3
					c-13.5,10.1-27.8,19.5-42.3,27.9c-4.6,2.6-10.4,1-13-3.5c-2.6-4.6-1-10.4,3.5-13c13.9-8,27.5-17,40.4-26.6
					C3067.7,1499.4,3073,1499.9,3076.3,1503.2z M2990.4,1552.4c0.9,0.9,1.6,1.9,2.1,3.1c2,4.9-0.3,10.4-5.1,12.5
					c-15.6,6.5-31.7,12.1-47.9,16.7c-5.1,1.4-10.3-1.5-11.7-6.6c-1.4-5.1,1.5-10.3,6.6-11.7c15.5-4.3,30.9-9.7,45.7-15.9
					C2983.7,1548.8,2987.8,1549.8,2990.4,1552.4z M2895.1,1579.1c1.4,1.4,2.4,3.2,2.7,5.3c0.8,5.2-2.8,10.1-8,10.8
					c-16.7,2.5-33.7,4-50.6,4.4c-5.3,0.1-9.6-4-9.8-9.3c-0.1-5.3,4-9.6,9.3-9.8c16-0.4,32.3-1.8,48.2-4.2
					C2890.1,1575.9,2893.1,1577,2895.1,1579.1z M2796.2,1581.7c2,1.9,3,4.7,2.8,7.7c-0.5,5.2-5.2,9.1-10.4,8.6
					c-16.8-1.6-33.6-4.3-50.1-8c-5.1-1.1-8.4-6.2-7.2-11.4c1.1-5.1,6.2-8.4,11.4-7.2c15.7,3.5,31.8,6.1,47.8,7.6
					C2792.7,1579.1,2794.7,1580.2,2796.2,1581.7z M2699.7,1560.2c2.5,2.5,3.5,6.4,2.3,10c-1.8,5-7.2,7.5-12.2,5.8
					c-15.9-5.7-31.6-12.4-46.6-19.9c-4.7-2.4-6.6-8.1-4.2-12.8c2.4-4.7,8.1-6.6,12.8-4.2c14.3,7.2,29.3,13.6,44.4,19
					C2697.5,1558.4,2698.7,1559.2,2699.7,1560.2z M2611.3,1515.7c3.2,3.2,3.8,8.2,1.2,12c-2.9,4.4-8.9,5.5-13.2,2.6
					c-14-9.4-27.5-19.7-40.3-30.8c-3.9-3.5-4.4-9.5-1-13.4c3.4-4,9.5-4.4,13.4-1c12.2,10.6,25.1,20.4,38.4,29.4
					C2610.4,1514.9,2610.9,1515.3,2611.3,1515.7z M2505.7,1412.1c0.4,0.4,0.8,0.8,1.1,1.3c8,11.4,16.7,22.5,26,33.1
					c1.4,1.6,2.8,3.2,4.2,4.7c3.5,3.9,3.2,9.9-0.7,13.5c-3.9,3.5-10.1,3.3-13.5-0.7c-1.5-1.7-3-3.3-4.4-5
					c-9.7-11.1-18.8-22.7-27.2-34.7c-3-4.3-2-10.3,2.3-13.3C2497.3,1408.4,2502.5,1408.9,2505.7,1412.1z"/>
			</g>
			<g>
				<path fill="#91B3FA" d="M3114.8,892.7c3.7,3.7,3.7,9.6,0.1,13.4c-3.7,3.8-9.7,3.9-13.5,0.2c-11.4-11-23.5-21.5-36.1-31
					c-4.1-3.2-5-9.2-1.8-13.4c3.2-4.2,9.2-5,13.4-1.8C3090.1,870.1,3102.8,881,3114.8,892.7C3114.8,892.6,3114.8,892.7,3114.8,892.7
					z M3147.7,928.7c0.2,0.2,0.5,0.5,0.7,0.8c10.4,12.9,20.2,26.6,29,40.6c2.8,4.5,1.5,10.3-3,13.1c-4.5,2.8-10.3,1.4-13.1-3
					c-8.4-13.4-17.7-26.4-27.7-38.8c-3.3-4.1-2.7-10.1,1.4-13.4C3138.8,924.9,3144.3,925.3,3147.7,928.7z M3037.3,833.9
					c3,3,3.7,7.7,1.5,11.5c-2.6,4.5-8.5,6.1-13,3.4c-13.7-8-28-15.2-42.5-21.4c-4.8-2.1-7.1-7.7-5-12.5c2.1-4.8,7.7-7.1,12.5-5
					c15.2,6.5,30.2,14.1,44.6,22.4C3036.1,832.8,3036.8,833.3,3037.3,833.9z M3199.4,1011.2c0.8,0.8,1.4,1.7,1.9,2.7
					c7,15,13.2,30.7,18.4,46.4c1.6,5-1.1,10.4-6.1,12c-5,1.6-10.4-1.1-12-6.1c-4.9-15-10.8-29.9-17.5-44.3
					c-2.2-4.8-0.2-10.4,4.6-12.7C3192.4,1007.6,3196.6,1008.5,3199.4,1011.2z M2947.9,795.5c2.4,2.4,3.4,6,2.4,9.4
					c-1.5,5.1-6.8,8-11.8,6.5c-15.2-4.4-30.8-8-46.4-10.5c-5.2-0.8-8.7-5.8-7.9-10.9c0.9-5.2,5.8-8.7,10.9-7.9
					c16.4,2.7,32.7,6.4,48.7,11C2945.4,793.6,2946.8,794.4,2947.9,795.5z M2851.9,779.7c1.8,1.8,2.9,4.4,2.8,7.2
					c-0.2,5.3-4.7,9.3-9.9,9.1c-15.8-0.7-31.9-0.4-47.6,0.9c-5.3,0.4-9.8-3.5-10.3-8.8c-0.4-5.2,3.5-9.8,8.7-10.2
					c16.5-1.3,33.3-1.6,49.9-0.9C2848,777.1,2850.3,778.1,2851.9,779.7z M2754.8,787.4c1.3,1.3,2.2,2.9,2.6,4.9
					c1,5.2-2.3,10.2-7.4,11.2c-15.5,3.1-31,7.3-46,12.3c-5,1.7-10.4-1-12.1-6c-1.7-5,1-10.4,6-12.1c15.7-5.2,31.9-9.6,48.2-12.9
					C2749.5,784.2,2752.7,785.2,2754.8,787.4z"/>
				<path fill="#91B3FA" d="M3229.7,1104.2c1.3,1.3,2.2,3,2.6,4.9c1.6,8,2.9,16.1,4,24c0.7,5.2-3,10-8.2,10.7
					c-5.2,0.7-10-3-10.7-8.2c-1-7.6-2.3-15.3-3.8-22.9c-1-5.2,2.4-10.2,7.5-11.2C3224.4,1101,3227.5,1102,3229.7,1104.2z"/>
			</g>
			<g>
				
					<linearGradient id="SVGID_3_" gradientUnits="userSpaceOnUse" x1="465.1327" y1="5607.6665" x2="1335.9912" y2="4272.3481" gradientTransform="matrix(-0.7084 -0.7058 0.7058 -0.7084 -30.5858 5327.0444)">
					<stop  offset="0" style="stop-color:#4F52FF"/>
					<stop  offset="1" style="stop-color:#4042E2"/>
				</linearGradient>
				<path fill="url(#SVGID_3_)" d="M3137.2,1185.8c0.2-2-0.9-4-2.8-4.9l-53.4-24.5c-3.6-27.2-11.5-54-24-79.4l30.8-50
					c1.1-1.8,0.9-4-0.4-5.6l-44.6-54.5c-1.3-1.6-3.5-2.2-5.4-1.5l-55.1,20.4c-22.4-17.2-47.1-30.3-73.1-39.1l-13.6-57.1
					c-0.5-2-2.2-3.5-4.2-3.7l-70.1-7c-2-0.2-4,0.9-4.9,2.8l-24.5,53.4c-27.2,3.6-54,11.5-79.4,24l-50-30.8c-1.8-1.1-4-0.9-5.6,0.4
					l-54.5,44.6c-1.6,1.3-2.2,3.5-1.5,5.4l20.4,55.1c-17.2,22.4-30.3,47.1-39.1,73.1l-57.2,13.6c-2,0.5-3.5,2.2-3.7,4.2l-7,70.1
					c-0.2,2,0.9,4,2.8,4.9l53.4,24.5c3.6,27.2,11.5,54,24,79.4l-30.8,50c-1.1,1.8-0.9,4,0.4,5.6l44.6,54.5c1.3,1.6,3.5,2.2,5.4,1.5
					l55.1-20.4c22.4,17.2,47.1,30.3,73.1,39.1l13.6,57.1c0.5,2,2.2,3.5,4.2,3.7l70.1,7c2,0.2,4-0.9,4.9-2.8l24.5-53.4
					c27.2-3.6,54-11.5,79.4-24l50,30.8c1.8,1.1,4,0.9,5.6-0.4l54.5-44.6c1.6-1.3,2.2-3.5,1.5-5.4l-20.4-55.1
					c17.2-22.4,30.3-47.1,39.1-73.1l57.1-13.6c2-0.5,3.5-2.2,3.7-4.2L3137.2,1185.8z"/>
				<path fill="#91B3FA" d="M2876.9,1139.3c10.9,10.9,18,24.8,20.3,40.3c2.8,19-1.9,38.1-13.4,53.5c-23.6,31.9-68.9,38.7-100.8,15.1
					c-31.9-23.7-38.7-68.9-15.1-100.8c11.5-15.5,28.3-25.6,47.3-28.4c19-2.8,38.1,1.9,53.5,13.4
					C2871.7,1134.5,2874.4,1136.8,2876.9,1139.3z M2788.4,1227.8c1.8,1.8,3.8,3.5,5.9,5.1c23.5,17.4,56.8,12.4,74.2-11.1
					c8.4-11.4,11.9-25.4,9.8-39.4c-2.1-14-9.5-26.4-20.9-34.8l0,0c-11.4-8.4-25.4-11.9-39.4-9.8c-14,2.1-26.4,9.5-34.8,20.9
					C2767.4,1180.1,2770.1,1209.6,2788.4,1227.8z"/>
				<path fill="#91B3FA" d="M2951,1063c4.3,4.3,8.4,8.8,12.3,13.5c7.7,9.5,14.5,19.7,20.2,30.5c0.3,0.5,0.5,1,0.8,1.5
					c1.9,3.8,1.1,8.2-1.7,11.1c-0.7,0.7-1.5,1.3-2.4,1.8c-4.7,2.4-10.4,0.5-12.8-4.1c-5.2-10.1-11.5-19.7-18.7-28.6l0,0
					c-0.4-0.5-0.8-1-1.2-1.4c-17.3-20.7-39.2-36.4-63.7-46.1c-13.3-5.3-27.4-8.8-42-10.3c-0.1,0-0.2,0-0.4,0c-0.4,0-0.7-0.1-1.1-0.1
					c-42.7-4.2-84.4,8.4-117.6,35.5c-4.3,3.5-8.4,7.2-12.2,11.1c-26,26.1-42.1,60-45.8,97.2c-4.2,42.7,8.4,84.4,35.5,117.6
					c27.2,33.1,65.6,53.8,108.3,58c42.7,4.2,84.4-8.4,117.6-35.5c4.2-3.5,8.2-7.1,12.1-11c16.6-16.6,29.3-36.7,37.3-58.9
					c0.5-1.4,1.3-2.5,2.2-3.5c2.5-2.5,6.4-3.5,10-2.2c4.9,1.8,7.5,7.2,5.8,12.2c-8.9,24.8-23.1,47.2-41.7,65.8
					c-4.3,4.3-8.8,8.4-13.5,12.3c-37.1,30.4-83.8,44.5-131.5,39.8c-47.7-4.7-90.7-27.7-121.1-64.9c-30.4-37.1-44.5-83.8-39.8-131.5
					c4.1-41.5,22.1-79.5,51.2-108.7c4.3-4.3,8.9-8.5,13.7-12.4C2782.4,992.5,2886.6,998.8,2951,1063z"/>
			</g>
		</g>
		<g>
			<g>
				<path fill="#91B3FA" d="M605.7,1931.6c-4.3-1.3-7.5-5.3-7.5-10.1c0-8.9,0.4-17.9,0.9-26.8c0.4-5.8,5.4-10.2,11.1-9.8
					c5.8,0.4,10.2,5.4,9.8,11.1c-0.5,8.5-0.8,17.1-0.9,25.6c0,5.8-4.7,10.5-10.5,10.4C607.7,1932.1,606.7,1931.9,605.7,1931.6z"/>
				<path fill="#91B3FA" d="M613.5,1851.3c-5.1-1.5-8.3-6.7-7.3-12c2.9-15.1,6.6-30.1,10.9-44.8c0.9-3.1,1.9-6.2,2.9-9.3
					c1.8-5.5,7.9-8.2,13.2-6.8c5.5,1.8,8.5,7.7,6.8,13.2c-1,3-1.9,5.9-2.8,8.9c-4.2,14-7.7,28.4-10.4,42.7
					c-1.1,5.7-6.6,9.4-12.3,8.3C614.2,1851.5,613.9,1851.4,613.5,1851.3z M646.9,1747.7c-0.5-0.1-1-0.3-1.4-0.5
					c-5.3-2.4-7.5-8.7-5.1-13.9c7.8-16.9,16.7-33.4,26.5-49.1c3.1-4.9,9.5-6.4,14.4-3.4c4.9,3.1,6.4,9.5,3.4,14.4
					c-9.3,15-17.8,30.8-25.3,46.9C657.2,1746.8,651.8,1749.2,646.9,1747.7z M704.4,1655.3c-1.3-0.4-2.5-1-3.6-1.9
					c-4.5-3.6-5.2-10.3-1.5-14.8c11.7-14.4,24.4-28.3,37.8-41.1c4.2-4,10.8-3.9,14.8,0.3c4,4.2,3.9,10.8-0.3,14.8
					c-12.8,12.3-24.9,25.5-36,39.2C712.8,1655.2,708.4,1656.4,704.4,1655.3z M782.9,1579.8c-2.1-0.6-4-1.9-5.4-3.8
					c-3.5-4.6-2.5-11.2,2.1-14.7c14.9-11.1,30.6-21.4,46.7-30.6c5-2.9,11.4-1.1,14.3,3.9c2.9,5,1.1,11.4-3.9,14.3
					c-15.3,8.8-30.3,18.6-44.5,29.2C789.4,1580.2,786,1580.7,782.9,1579.8z M877.4,1525.7c-2.9-0.9-5.4-3-6.7-6
					c-2.2-5.3,0.3-11.5,5.6-13.7c17.1-7.2,34.9-13.3,52.7-18.4c5.6-1.6,11.4,1.7,12.9,7.3c1.6,5.6-1.7,11.4-7.3,12.9
					c-17,4.8-33.9,10.7-50.3,17.5C882.1,1526.3,879.7,1526.4,877.4,1525.7z M982.2,1496.3c-3.8-1.1-6.7-4.3-7.4-8.5
					c-0.9-5.7,3.1-11.1,8.8-11.9c18.3-2.8,37-4.5,55.6-5c5.8-0.1,10.6,4.4,10.8,10.2c0.2,5.8-4.4,10.6-10.2,10.8
					c-17.7,0.5-35.5,2.1-53,4.7C985.2,1496.9,983.6,1496.7,982.2,1496.3z M1090.9,1493.4c-4.7-1.4-7.9-6-7.4-11.1
					c0.6-5.8,5.7-10,11.5-9.4c18.4,1.8,37,4.8,55.1,8.8c5.6,1.4,9.2,6.9,7.9,12.5c-1.3,5.6-6.9,9.2-12.5,7.9
					c-17.3-3.9-35-6.7-52.6-8.4C1092.2,1493.7,1091.6,1493.6,1090.9,1493.4z M1247.3,1538.7c-0.6-0.2-1.2-0.4-1.7-0.7
					c-13.7-6.9-27.9-13.1-42.4-18.6c-2.2-0.8-4.4-1.6-6.5-2.4c-5.5-2-8.3-7.9-6.4-13.4c1.9-5.5,8-8.5,13.4-6.4
					c2.3,0.8,4.6,1.7,6.9,2.5c15.1,5.7,30.1,12.2,44.4,19.4c5.2,2.6,7.3,8.9,4.7,14.1C1257.3,1538,1252.1,1540.1,1247.3,1538.7z"/>
			</g>
			<g>
				<path fill="#91B3FA" d="M927.5,2359.4c-5.5-1.6-8.6-7.4-7.1-12.9c1.6-5.6,7.4-8.8,13-7.2c16.8,4.8,34,8.6,51.1,11.3
					c5.7,0.9,9.6,6.3,8.7,12c-0.9,5.7-6.3,9.6-12,8.7c-18-2.8-36-6.8-53.6-11.8C927.6,2359.4,927.5,2359.4,927.5,2359.4z
					 M876.9,2341.7c-0.4-0.1-0.7-0.2-1.1-0.4c-16.8-7.1-33.4-15.2-49.3-24.2c-5-2.9-6.8-9.3-3.9-14.3c2.9-5,9.3-6.8,14.3-3.9
					c15.1,8.6,30.9,16.4,47,23.1c5.3,2.2,7.9,8.4,5.6,13.7C887.4,2340.7,881.9,2343.2,876.9,2341.7z M1033.3,2376.1
					c-4.5-1.3-7.6-5.5-7.5-10.4c0.2-5.8,5-10.3,10.8-10.1c17.4,0.6,35,0.1,52.4-1.4c5.8-0.5,10.9,3.8,11.4,9.5
					c0.5,5.8-3.8,10.9-9.5,11.4c-18.1,1.6-36.6,2.1-54.9,1.5C1035,2376.5,1034.1,2376.3,1033.3,2376.1z M783.8,2288.6
					c-1.1-0.3-2.2-0.9-3.3-1.6c-14.7-10.9-28.8-22.8-42-35.4c-4.2-4-4.3-10.6-0.3-14.8c4-4.2,10.6-4.3,14.8-0.3
					c12.6,12,26.1,23.4,40,33.8c4.6,3.5,5.6,10,2.1,14.7C792.5,2288.4,787.9,2289.8,783.8,2288.6z M1139.9,2366.6
					c-3.6-1.1-6.4-4-7.3-7.9c-1.2-5.7,2.4-11.2,8.1-12.4c17-3.6,34-8.3,50.5-14c5.5-1.9,11.4,1,13.3,6.5c1.9,5.5-1,11.4-6.5,13.3
					c-17.3,5.9-35.1,10.9-52.9,14.6C1143.3,2367.2,1141.5,2367.1,1139.9,2366.6z M1241.2,2331.9c-2.7-0.8-5.1-2.7-6.4-5.5
					c-2.5-5.2-0.4-11.5,4.9-14c15.7-7.6,31.1-16.2,45.7-25.6c4.9-3.1,11.4-1.7,14.5,3.1c3.1,4.9,1.7,11.4-3.1,14.5
					c-15.3,9.9-31.4,18.9-47.9,26.9C1246.3,2332.5,1243.6,2332.6,1241.2,2331.9z M1331.2,2273.9c-1.9-0.6-3.7-1.7-5.1-3.3
					c-3.7-4.5-3.1-11.1,1.4-14.8c13.4-11.1,26.3-23.2,38.2-35.8c4-4.2,10.6-4.4,14.8-0.4c4.2,4,4.4,10.6,0.4,14.8
					c-12.5,13.3-26,25.9-40,37.6C1338.1,2274.3,1334.5,2274.9,1331.2,2273.9z"/>
				<path fill="#91B3FA" d="M706,2214.3c-1.9-0.6-3.7-1.7-5.1-3.4c-5.7-6.9-11.2-14.1-16.4-21.2c-3.4-4.7-2.3-11.2,2.3-14.6
					c4.7-3.4,11.2-2.3,14.6,2.3c4.9,6.8,10.2,13.6,15.6,20.3c3.7,4.5,3,11.1-1.5,14.8C712.9,2214.6,709.2,2215.2,706,2214.3z"/>
			</g>
			<g>
				
					<linearGradient id="SVGID_4_" gradientUnits="userSpaceOnUse" x1="1159.1466" y1="1164.3132" x2="582.1671" y2="2127.5742" gradientTransform="matrix(0.9581 0.2863 -0.2863 0.9581 829.0623 -33.2943)">
					<stop  offset="0" style="stop-color:#4F52FF"/>
					<stop  offset="1" style="stop-color:#4042E2"/>
				</linearGradient>
				<path fill="url(#SVGID_4_)" d="M753.2,2087c0.9,2.1,3,3.4,5.2,3.3l64.5-4c17.6,24.5,39.3,46.3,64.6,64.4l-3.8,64.5
					c-0.1,2.3,1.2,4.4,3.3,5.2l71.7,29.6c2.1,0.9,4.5,0.3,6-1.4l42.7-48.4c30.7,5,61.4,4.8,91.2-0.2l42.9,48.3
					c1.5,1.7,3.9,2.2,6,1.4l71.6-29.8c2.1-0.9,3.4-3,3.3-5.2l-4-64.5c24.5-17.6,46.3-39.3,64.4-64.6l64.5,3.8
					c2.3,0.1,4.4-1.2,5.2-3.3l29.6-71.7c0.9-2.1,0.3-4.5-1.4-6l-48.4-42.7c5-30.7,4.8-61.4-0.2-91.2l48.3-42.9
					c1.7-1.5,2.2-3.9,1.4-6l-29.8-71.6c-0.9-2.1-3-3.4-5.2-3.3l-64.5,4c-17.6-24.5-39.3-46.3-64.6-64.4l3.8-64.5
					c0.1-2.3-1.2-4.4-3.3-5.2l-71.7-29.6c-2.1-0.9-4.5-0.3-6,1.4l-42.7,48.4c-30.7-5-61.4-4.8-91.2,0.2l-42.9-48.3
					c-1.5-1.7-3.9-2.2-6-1.4l-71.6,29.8c-2.1,0.9-3.4,3-3.3,5.2l4,64.5c-24.5,17.6-46.3,39.3-64.4,64.6l-64.5-3.8
					c-2.3-0.1-4.4,1.2-5.2,3.3l-29.6,71.7c-0.9,2.1-0.3,4.5,1.4,6l48.4,42.7c-5,30.7-4.8,61.4,0.2,91.2l-48.3,42.9
					c-1.7,1.5-2.2,3.9-1.4,6L753.2,2087z"/>
				<path fill="#91B3FA" d="M1029.7,1996.5c-16.2-4.8-30.4-14.7-40.7-28.5c-12.7-17-18-37.9-14.9-58.8c6.3-43.3,46.6-73.4,89.9-67.1
					c43.3,6.4,73.4,46.6,67.1,89.9c-3,21-14.1,39.5-31,52.2c-17,12.7-37.9,18-58.8,14.9C1037.2,1998.4,1033.4,1997.6,1029.7,1996.5z
					 M1069.3,1864.6c-2.7-0.8-5.5-1.4-8.4-1.8c-31.8-4.6-61.5,17.5-66.1,49.4c-2.2,15.4,1.7,30.8,11,43.3
					c9.3,12.5,23,20.6,38.4,22.8l0,0c15.4,2.2,30.8-1.7,43.3-11c12.5-9.3,20.6-23,22.8-38.4
					C1114.5,1899.9,1096.5,1872.7,1069.3,1864.6z"/>
				<path fill="#91B3FA" d="M997.6,2109.1c-6.4-1.9-12.7-4.1-18.9-6.7c-12.4-5.1-24.4-11.5-35.5-19c-0.5-0.3-1-0.7-1.5-1
					c-3.8-2.6-5.4-7.4-4.1-11.6c0.3-1,0.8-2,1.4-3c3.3-4.8,9.8-5.9,14.6-2.7c10.3,7.1,21.4,13.1,33,17.9l0,0
					c0.6,0.3,1.3,0.5,1.9,0.8c27.6,11.1,56.9,14.9,85.7,11.5c15.6-1.8,31.1-5.8,46-11.8c0.1,0,0.2-0.1,0.4-0.1
					c0.4-0.2,0.7-0.3,1.1-0.5c43.5-18.1,77.4-52.1,95.4-95.7c2.3-5.6,4.4-11.4,6.1-17.1c11.6-38.8,9.5-80.1-6.3-118
					c-18.1-43.5-52.1-77.4-95.7-95.4c-43.6-18-91.6-17.9-135.1,0.2c-43.5,18.1-77.4,52.1-95.4,95.7c-2.3,5.5-4.3,11.2-6,16.9
					c-7.4,24.8-9.3,50.9-5.5,76.4c0.2,1.6,0.1,3.1-0.3,4.6c-1.1,3.8-4.3,6.8-8.5,7.4c-5.7,0.8-11.1-3.1-11.9-8.8
					c-4.3-28.6-2.2-57.8,6.1-85.5c1.9-6.4,4.1-12.7,6.7-18.9c20.1-48.8,58-86.8,106.8-107.1c48.7-20.3,102.4-20.4,151.2-0.2
					c48.8,20.1,86.8,58,107,106.8c17.6,42.4,20,88.6,7,132c-1.9,6.4-4.2,12.8-6.8,19.2C1197.6,2089.5,1093.4,2137.7,997.6,2109.1z"
					/>
			</g>
		</g>
		<g>
			<g>
				<path fill="#91B3FA" d="M1760.1,2555.8c-7.9,0.7-15.2-4.7-16.7-12.6c-3.4-17.4-6.1-35.1-8-52.8c-0.9-8.6,5.3-16.3,13.9-17.3
					c0.1,0,0.2,0,0.3,0c8.5-0.8,16,5.4,17,13.9c1.8,16.8,4.4,33.7,7.6,50.2c1.7,8.5-3.9,16.7-12.4,18.4
					C1761.2,2555.7,1760.7,2555.7,1760.1,2555.8z M1749,2419.8c-0.6,0.1-1.2,0.1-1.9,0.1c-8.6-0.2-15.5-7.5-15.2-16.1
					c0.5-17.8,1.8-35.7,3.8-53.2c1-8.6,8.7-14.7,17.3-13.8c8.6,1,14.8,8.7,13.8,17.3c-1.9,16.7-3.1,33.7-3.6,50.6
					C1763,2412.7,1756.8,2419.1,1749,2419.8z M1768.1,2284.8c-1.7,0.2-3.5,0-5.3-0.4c-8.4-2.2-13.4-10.7-11.2-19.1
					c4.4-17.2,9.7-34.3,15.6-51.1c2.9-8.2,11.8-12.4,20-9.6c8.2,2.9,12.4,11.8,9.6,20c-5.6,15.9-10.6,32.2-14.8,48.5
					C1780.2,2279.7,1774.5,2284.2,1768.1,2284.8z M1816.9,2157.4c-2.9,0.3-5.8-0.3-8.6-1.7c-7.7-4-10.7-13.4-6.7-21.1
					c8.2-15.7,17.1-31.3,26.6-46.3c4.6-7.3,14.3-9.5,21.6-4.9c7.3,4.6,9.5,14.3,4.9,21.6c-9,14.2-17.5,29-25.3,44
					C1826.9,2153.9,1822.1,2156.9,1816.9,2157.4z M1892.9,2044.1c-4,0.4-8.2-0.8-11.5-3.6c-6.6-5.6-7.4-15.5-1.8-22.1
					c11.4-13.5,23.6-26.7,36.2-39.2c6.1-6.1,16-6.1,22.1,0c6.1,6.1,6.1,16,0,22.1c-12,11.9-23.5,24.5-34.4,37.3
					C1900.7,2041.9,1896.9,2043.7,1892.9,2044.1z M1992.1,1950.4c-5.2,0.5-10.5-1.7-13.9-6.2c-5.2-6.9-3.8-16.7,3.1-21.9
					c14.2-10.7,29-20.8,44-30.3c7.3-4.6,17-2.4,21.6,4.9c4.6,7.3,2.4,17-4.9,21.6c-14.3,9-28.3,18.6-41.8,28.8
					C1997.7,1949.2,1994.9,1950.2,1992.1,1950.4z M2560.3,1862.3c-2.2,0.2-4.4-0.1-6.6-0.8c-15.9-5.6-32.2-10.5-48.5-14.7
					c-8.4-2.2-13.4-10.7-11.3-19.1c2.1-8.4,10.7-13.4,19.1-11.3c17.2,4.4,34.4,9.6,51.1,15.5c8.2,2.9,12.5,11.8,9.6,20
					C2571.6,1857.8,2566.2,1861.8,2560.3,1862.3z M2109.5,1881.1c-6.5,0.6-12.9-2.9-15.7-9.2c-3.5-7.9,0-17.2,7.9-20.7
					c16.2-7.2,32.9-13.9,49.6-19.7c8.2-2.8,17.1,1.5,19.9,9.6c2.8,8.2-1.5,17.1-9.6,19.9c-15.9,5.5-31.7,11.8-47.1,18.7
					C2112.9,1880.5,2111.2,1880.9,2109.5,1881.1z M2427.3,1831.9c-1,0.1-2.1,0.1-3.2,0c-16.7-1.9-33.8-3.1-50.6-3.5
					c-8.6-0.2-15.5-7.4-15.2-16.1c0.2-8.6,7.4-15.5,16.1-15.2c17.7,0.5,35.7,1.7,53.3,3.7c8.6,1,14.8,8.7,13.8,17.3
					C2440.6,1825.6,2434.6,1831.3,2427.3,1831.9z M2239.4,1839.7c-7.9,0.7-15.2-4.6-16.7-12.6c-1.7-8.5,3.8-16.7,12.3-18.4
					c17.4-3.4,35.1-6.2,52.8-8.1c0.1,0,0.2,0,0.3,0c8.5-0.8,16,5.4,16.9,13.9c0.9,8.6-5.2,16.3-13.8,17.3
					c-16.8,1.9-33.6,4.4-50.1,7.7C2240.5,1839.6,2240,1839.7,2239.4,1839.7z"/>
				<path fill="#91B3FA" d="M2660.3,1907.9c-3.1,0.3-6.3-0.4-9.1-2c-7-4-14.2-7.9-21.4-11.7c-7.7-4-10.7-13.4-6.7-21.1
					c4-7.7,13.4-10.7,21.1-6.7c7.6,3.9,15.2,8.1,22.6,12.3c7.5,4.3,10.1,13.9,5.8,21.4C2669.9,1904.7,2665.3,1907.5,2660.3,1907.9z"
					/>
			</g>
			<g>
				<path fill="#91B3FA" d="M2949.6,2287.7c-7.5,0.7-14.6-4.2-16.6-11.8c-2-7.8-4.2-15.7-6.5-23.5c-2.5-8.3,2.3-17,10.5-19.5
					c8.3-2.5,17,2.3,19.5,10.5c2.4,8.2,4.7,16.5,6.8,24.8c2.1,8.4-3,16.9-11.3,19C2951.3,2287.5,2950.5,2287.6,2949.6,2287.7z"/>
				<path fill="#91B3FA" d="M2413.3,3045.2c-7.2,0.6-14.4,1.2-21.6,1.6c-8.6,0.5-16-6.1-16.5-14.8s6.2-16.1,14.8-16.5
					c16.7-0.9,33.4-2.5,49.7-4.8c8.6-1.2,16.5,4.8,17.7,13.4c1.2,8.6-4.8,16.5-13.4,17.7C2433.9,3043.1,2423.6,3044.3,2413.3,3045.2
					z M2309,3045.7c-0.9,0.1-1.8,0.1-2.7,0c-17.4-1.4-35-3.6-52.2-6.4c-8.5-1.4-14.3-9.5-12.9-18c1.4-8.5,9.5-14.3,18-12.9
					c16.3,2.7,33,4.7,49.6,6.1c8.6,0.7,15,8.2,14.4,16.9C2322.6,3039,2316.5,3045,2309,3045.7z M2524.6,3024.7
					c-7.4,0.7-14.4-4-16.4-11.3c-2.3-8.3,2.5-17,10.8-19.3c15.9-4.5,31.9-9.7,47.4-15.6c8.1-3,17.1,1.1,20.2,9.1
					c3,8.1-1.1,17.1-9.1,20.2c-16.4,6.2-33.1,11.7-49.9,16.4C2526.5,3024.5,2525.6,3024.6,2524.6,3024.7z M2177.2,3020.2
					c-2,0.2-4,0-6-0.7c-16.7-5.2-33.3-11.2-49.5-17.7c-8-3.3-11.9-12.4-8.6-20.4c3.3-8,12.4-11.9,20.4-8.6
					c15.3,6.2,31.1,11.9,47,16.8c8.3,2.6,12.9,11.3,10.3,19.6C2188.8,3015.5,2183.3,3019.7,2177.2,3020.2z M2648.9,2974.2
					c-6,0.5-12.1-2.5-15.2-8.1c-4.1-7.6-1.3-17.1,6.3-21.2c14.5-7.9,28.9-16.5,42.8-25.6c7.2-4.7,16.9-2.7,21.7,4.5
					c4.7,7.2,2.7,16.9-4.5,21.7c-14.6,9.6-29.8,18.7-45.1,27C2653,2973.4,2651,2974,2648.9,2974.2z M2759.1,2897.6
					c-4.8,0.4-9.8-1.4-13.2-5.3c-5.7-6.5-5-16.4,1.5-22.1c12.5-10.9,24.7-22.5,36.2-34.3c6-6.2,15.9-6.4,22.1-0.3
					c6.2,6,6.4,15.9,0.3,22.1c-12.1,12.5-25,24.7-38.1,36.1C2765.4,2896.1,2762.3,2897.3,2759.1,2897.6z M2850,2798.9
					c-3.7,0.3-7.5-0.6-10.7-3c-7-5.1-8.5-14.9-3.3-21.9c9.8-13.4,19.2-27.3,27.9-41.4c4.5-7.4,14.2-9.7,21.5-5.2
					c7.4,4.5,9.7,14.2,5.2,21.5c-9.1,14.8-19,29.5-29.3,43.6C2858.4,2796.3,2854.3,2798.5,2850,2798.9z M2917.1,2682.6
					c-2.5,0.2-5.2-0.2-7.7-1.3c-7.9-3.5-11.5-12.7-8-20.6c6.7-15.2,12.8-30.8,18.1-46.5c2.8-8.2,11.7-12.6,19.9-9.8
					c8.2,2.8,12.6,11.7,9.8,19.9c-5.6,16.5-12.1,33-19.1,49C2927.7,2678.7,2922.7,2682.1,2917.1,2682.6z M2957.2,2554.4
					c-1.4,0.1-2.9,0.1-4.4-0.2c-8.5-1.6-14-9.9-12.4-18.3c3.1-16.2,5.6-32.8,7.4-49.3c0.9-8.6,8.7-14.8,17.2-13.9
					c8.6,0.9,14.8,8.6,13.9,17.2c-1.9,17.4-4.5,34.8-7.8,51.9C2969.8,2548.8,2964,2553.8,2957.2,2554.4z M2968.1,2420.7
					c-0.3,0-0.6,0-1,0.1c-8.6,0.2-15.8-6.6-16.1-15.2c-0.3-12.2-1.1-24.5-2.1-36.7c-0.4-4.4-0.8-8.8-1.3-13.1
					c-1-8.6,5.2-16.3,13.8-17.3c8.7-1.1,16.3,5.2,17.3,13.8c0.5,4.6,1,9.2,1.4,13.8c1.1,12.8,1.9,25.7,2.3,38.6
					C2982.5,2413,2976.2,2419.9,2968.1,2420.7z"/>
				<path fill="#91B3FA" d="M2053.9,2966.2c-3.1,0.3-6.3-0.4-9.2-2c-7.3-4.2-14.7-8.7-22-13.3c-7.3-4.6-9.5-14.3-4.8-21.6
					c4.6-7.3,14.3-9.5,21.6-4.8c6.9,4.4,13.9,8.6,20.9,12.6c7.5,4.3,10.1,13.9,5.7,21.4C2063.4,2963,2058.8,2965.7,2053.9,2966.2z"
					/>
			</g>
			<g>
				
					<linearGradient id="SVGID_5_" gradientUnits="userSpaceOnUse" x1="1851.4574" y1="2812.0718" x2="2920.1526" y2="2314.2329" gradientTransform="matrix(0.996 -8.890000e-02 8.890000e-02 0.996 -268.5736 89.1167)">
					<stop  offset="0" style="stop-color:#4F52FF"/>
					<stop  offset="1" style="stop-color:#4042E2"/>
				</linearGradient>
				<path fill="url(#SVGID_5_)" d="M2058.8,2783.4c2.2,2.2,5.5,2.8,8.4,1.5l80.5-38.1c35.1,22.4,74,39.3,115.5,49.5l28,84.5
					c1,3,3.7,5,6.9,5l106.8,1.3c3.1,0,5.9-1.9,7-4.8l30-83.8c41.8-9.3,81.1-25.2,116.7-46.8l79.6,40c2.8,1.4,6.2,0.9,8.4-1.3
					l76.4-74.6c2.2-2.2,2.8-5.5,1.5-8.4l-38.1-80.5c22.4-35.1,39.3-74,49.5-115.5l84.5-28c3-1,5-3.7,5-6.9l1.3-106.8
					c0-3.1-1.9-5.9-4.9-7l-83.8-30c-9.3-41.8-25.2-81.1-46.8-116.7l40-79.6c1.4-2.8,0.9-6.2-1.3-8.4l-74.6-76.4
					c-2.2-2.2-5.5-2.8-8.4-1.5l-80.5,38.1c-35.1-22.4-74-39.3-115.5-49.5l-28-84.5c-1-3-3.7-5-6.9-5l-106.8-1.3
					c-3.1,0-5.9,1.9-7,4.8l-30,83.8c-41.8,9.3-81.1,25.2-116.7,46.8l-79.6-40c-2.8-1.4-6.2-0.9-8.4,1.3l-76.4,74.6
					c-2.2,2.2-2.8,5.5-1.5,8.4l38.1,80.5c-22.4,35.1-39.3,74-49.5,115.5l-84.5,28c-3,1-5,3.7-5,6.9l-1.3,106.8c0,3.1,1.9,5.9,4.8,7
					l83.8,30c9.3,41.8,25.2,81.1,46.8,116.7l-40,79.6c-1.4,2.8-0.9,6.2,1.3,8.4L2058.8,2783.4z"/>
				<path fill="#91B3FA" d="M2366.6,2524.4c-52.1,4.7-101.3-29.6-113.9-81.9c-13.8-57.6,21.8-115.7,79.4-129.5
					c27.9-6.7,56.7-2.1,81.2,12.9c24.5,15,41.6,38.6,48.3,66.5c13.8,57.6-21.8,115.7-79.4,129.5
					C2377,2523.1,2371.8,2524,2366.6,2524.4z M2350,2335.4c-4,0.4-8,1-12.1,2c-44.2,10.6-71.5,55.1-60.9,99.3
					c10.6,44.2,55.1,71.5,99.3,60.9c44.2-10.6,71.5-55.1,60.9-99.3c-5.1-21.4-18.3-39.5-37-51
					C2384.9,2337.9,2367.5,2333.8,2350,2335.4z"/>
				<path fill="#91B3FA" d="M2382.6,2678.7c-9,0.8-18,1.2-27.1,1l0,0c-2.9,0-5.7-0.1-8.6-0.2c-14.1-0.6-28.2-2.4-42-5.2
					c-0.2,0-0.4-0.1-0.6-0.1c-0.5-0.1-1.1-0.2-1.6-0.3c-1-0.2-2.1-0.5-3.1-0.7c-2.7-0.6-4.6-2.9-4.8-5.5c-0.1-0.6,0-1.3,0.1-2
					c0.8-3.4,4.1-5.5,7.5-4.7c17.4,4,35.3,6.1,53.2,6.3c89.1,1.1,168.1-44.6,213.7-114.2c25.3-38.7,40.3-84.8,40.9-134.4
					c0.1-8.7-0.2-17.3-1-25.9c-5.1-57.5-29.7-111-70.6-152.9c-46.9-48.1-109.8-75-177-75.8c-138.8-1.6-252.9,109.8-254.5,248.5
					c-0.1,8.6,0.2,17.1,1,25.5c3.3,36.7,14.5,72.2,33.1,104c0.5,0.8,0.8,1.7,0.8,2.6c0.2,2.3-0.9,4.7-3.1,6c-3,1.7-6.8,0.7-8.6-2.3
					c-19.5-33.4-31.3-70.7-34.8-109.2c-0.8-8.9-1.1-17.8-1-26.8c1.7-145.6,121.7-262.6,267.2-260.9c70.5,0.8,136.5,29.1,185.8,79.6
					c42.9,43.9,68.7,100.1,74.1,160.5c0.8,9,1.2,18,1,27.2c-0.8,70.5-29.1,136.5-79.6,185.8
					C2499.1,2647.6,2442.9,2673.3,2382.6,2678.7z"/>
			</g>
		</g>
		<g>
			<g>
				<linearGradient id="SVGID_6_" gradientUnits="userSpaceOnUse" x1="2290.9434" y1="708.7131" x2="2384.8159" y2="944.1905">
					<stop  offset="0" style="stop-color:#09005D"/>
					<stop  offset="1" style="stop-color:#1A0F91"/>
				</linearGradient>
				<path fill="url(#SVGID_6_)" d="M2346.6,835.4c0,0,31.6,15.4,37.5,33.1c4.7,14.2,39.7,16,43.1,43.9c1.8,14.4,12.4,25.9,26.8,28.1
					c35.7,5.5,90.8,24,99.6,86.1c6.7,47.4-17.4,65.3-42.8,71.5c-18.6,4.6-31,22.7-27.2,41.5c3.6,18-1.8,38.9-33,55.3
					c-70,36.9-139.8-87.5-139.8-87.5l-14.3-217.2L2346.6,835.4z"/>
				
					<linearGradient id="SVGID_7_" gradientUnits="userSpaceOnUse" x1="1746.4672" y1="645.7091" x2="1919.8879" y2="1040.2805" gradientTransform="matrix(0.9951 9.920000e-02 -9.920000e-02 0.9951 452.2618 21.8756)">
					<stop  offset="0" style="stop-color:#FEBBBA"/>
					<stop  offset="1" style="stop-color:#FF928E"/>
				</linearGradient>
				<path fill="url(#SVGID_7_)" d="M2058.8,706.4c0,0,65.2,253.1,210.3,344.7c0,0-59.1,77.8-86.1,80.2c0,0-142.3-225-141.9-397.6
					L2058.8,706.4z"/>
				<linearGradient id="SVGID_8_" gradientUnits="userSpaceOnUse" x1="2671.9019" y1="2174.5767" x2="2658.4709" y2="1899.241">
					<stop  offset="0" style="stop-color:#09005D"/>
					<stop  offset="1" style="stop-color:#1A0F91"/>
				</linearGradient>
				<path fill="url(#SVGID_8_)" d="M2634.2,2197.2l4.5,37.2c0.9,7.1,6.4,12.6,13.5,13.5c11.9,1.4,31.1,2.8,49.8,0.8
					c8.2-0.9,13.6-9.2,11.1-17.1c-4.6-14.4-12.9-35.9-25-48.6h-41.3C2639.2,2182.9,2633.3,2189.6,2634.2,2197.2z"/>
				<linearGradient id="SVGID_9_" gradientUnits="userSpaceOnUse" x1="2297.7488" y1="2530.1648" x2="2412.2996" y2="1191.3525">
					<stop  offset="0" style="stop-color:#FEBBBA"/>
					<stop  offset="1" style="stop-color:#FF928E"/>
				</linearGradient>
				<path fill="url(#SVGID_9_)" d="M2310.8,1761.2l-7,41c0,0,23.3,236.4,27.5,330.9c0.7,14.8-3.2,29.5-11,42.1l-40.6,65.9
					l103.1-60.9l2.1-12.6l-16.9-23.2l22.1-264.8c1.3-15.6-1.9-31.2-9.2-44.9l-21.3-40.1L2310.8,1761.2z"/>
				<linearGradient id="SVGID_10_" gradientUnits="userSpaceOnUse" x1="2331.5479" y1="2194.4465" x2="2367.364" y2="1948.2111">
					<stop  offset="0" style="stop-color:#09005D"/>
					<stop  offset="1" style="stop-color:#1A0F91"/>
				</linearGradient>
				<path fill="url(#SVGID_10_)" d="M2273,2250.7h32.9c6.2,0,12-2.8,15.7-7.7c10.3-13.3,31.5-39.3,41.7-40
					c13.7-0.9,11.9,47.7,11.9,47.7h7.7l9.7-60.4c2.4-15.2-5.1-30.3-18.8-37.4l0,0c0,0-3.1,23.1-20.1,33.4c-17,10.2-69,46.9-69,46.9
					s-6.4-0.9-13.4,0.4C2261,2235.3,2262.4,2250.7,2273,2250.7z"/>
				<linearGradient id="SVGID_11_" gradientUnits="userSpaceOnUse" x1="2528.1746" y1="2550.0859" x2="2642.7556" y2="1210.9204">
					<stop  offset="0" style="stop-color:#FEBBBA"/>
					<stop  offset="1" style="stop-color:#FF928E"/>
				</linearGradient>
				<path fill="url(#SVGID_11_)" d="M2452.1,1780.6c0,0,136.7,259.3,158.5,318.6c21.7,59.2,29.3,108.6,29.6,113.3
					c0.5,7.3,9.5,14.3,34.6,14.3c12.9,0,19.3-5.2,22.4-10.2c2.6-4.3,2.8-9.6,0.6-14.1c-7.9-16-33-67.2-42.3-90.4
					c-11.1-27.7-35-153.2-48.1-196.9c-13.1-43.6-27.9-91-84.9-134.6C2522.4,1780.6,2483.3,1742.3,2452.1,1780.6z"/>
				<linearGradient id="SVGID_12_" gradientUnits="userSpaceOnUse" x1="3078.5916" y1="646.5428" x2="2625.3179" y2="973.9077">
					<stop  offset="0" style="stop-color:#FF928E"/>
					<stop  offset="1" style="stop-color:#FE7062"/>
				</linearGradient>
				<path fill="url(#SVGID_12_)" d="M2365.7,1355.7c-35.3-149.4,54.1-234,54.1-234c-56.4-54.1-159.1-78.7-159.1-78.7
					s-98,71.7-86.4,127.7c6.8,32.9,68.9,196.9,68.9,196.9S2300.6,1394.8,2365.7,1355.7z"/>
				<linearGradient id="SVGID_13_" gradientUnits="userSpaceOnUse" x1="2474.7554" y1="1298.0415" x2="2148.2053" y2="2308.7947">
					<stop  offset="0" style="stop-color:#09005D"/>
					<stop  offset="1" style="stop-color:#1A0F91"/>
				</linearGradient>
				<path fill="url(#SVGID_13_)" d="M2443.9,1429.7c-14.4-43.2-78.2-74-78.2-74c-65.1,39.1-122.5,11.9-122.5,11.9s-12.9,49.2-4,94.9
					c8.9,45.7,64.6,339.6,64.6,339.6c87.8,17.8,222.9-17.9,222.9-17.9C2470.8,1684.9,2458.2,1472.9,2443.9,1429.7z"/>
				<linearGradient id="SVGID_14_" gradientUnits="userSpaceOnUse" x1="2287.6494" y1="1150.7678" x2="2330.1809" y2="913.4865">
					<stop  offset="0" style="stop-color:#FEBBBA"/>
					<stop  offset="1" style="stop-color:#FF928E"/>
				</linearGradient>
				<path fill="url(#SVGID_14_)" d="M2324.8,944.2l28.7,128.8c2.7,11.3-7.6,9.5-19.1,7.3c-18.8-3.5-43-10.8-51.1-25.5
					c-0.8-1.5-1.2-3.2-1.5-4.9l-12.3-89.3c-1-7.1,2.9-14,9.4-16.9l23.8-10.5C2311.8,929.3,2322.4,934.5,2324.8,944.2z"/>
				<g>
					<linearGradient id="SVGID_15_" gradientUnits="userSpaceOnUse" x1="2230.8743" y1="1007.5338" x2="2418.6199" y2="673.4095">
						<stop  offset="0" style="stop-color:#FEBBBA"/>
						<stop  offset="1" style="stop-color:#FF928E"/>
					</linearGradient>
					<path fill="url(#SVGID_15_)" d="M2291.1,821.6c0,0-34,14.3-57,63.4c-23.1,49.1-5.8,71.7,15.8,74.8c21.7,3.1,54.1,2.6,88.3-29.1
						C2372.5,899.1,2335.3,804.6,2291.1,821.6z"/>
					<linearGradient id="SVGID_16_" gradientUnits="userSpaceOnUse" x1="2271.2488" y1="716.5637" x2="2365.1213" y2="952.0412">
						<stop  offset="0" style="stop-color:#09005D"/>
						<stop  offset="1" style="stop-color:#1A0F91"/>
					</linearGradient>
					<path fill="url(#SVGID_16_)" d="M2315.2,904.6c0,0,25.6-71.8-38-72.6l-15,10.5c0,0-23.4-39.8,15-58.8
						c38.3-19,83.2-3.3,99.5,48.3c16.3,51.6,19.1,86.2-8,110.9c-27.1,24.7-38.3-3.3-38.3-3.3s14.8-23.1,8.8-35.5
						c-6-12.4-19.9,2.6-19.9,2.6L2315.2,904.6z"/>
					<linearGradient id="SVGID_17_" gradientUnits="userSpaceOnUse" x1="2270.8376" y1="1029.9902" x2="2458.5837" y2="695.8653">
						<stop  offset="0" style="stop-color:#FEBBBA"/>
						<stop  offset="1" style="stop-color:#FF928E"/>
					</linearGradient>
					<path fill="url(#SVGID_17_)" d="M2322.3,912.6c0,0,13-37,30.2-22.3c17.3,14.7-14,34.2-26.3,40.5L2322.3,912.6z"/>
				</g>
				<g>
					
						<linearGradient id="SVGID_18_" gradientUnits="userSpaceOnUse" x1="1699.823" y1="632.6363" x2="1819.6008" y2="905.1578" gradientTransform="matrix(0.9951 9.920000e-02 -9.920000e-02 0.9951 452.2618 21.8756)">
						<stop  offset="0" style="stop-color:#FEBBBA"/>
						<stop  offset="1" style="stop-color:#FF928E"/>
					</linearGradient>
					<path fill="url(#SVGID_18_)" d="M2045.8,750c-1.8,4.2,13.4,12.4,24.5-4.4c1.2-8.5,10-44.5,5.6-51.9
						c-23.4-39.7-51.8-44.9-51.8-44.9c-6.3,9.1-13.6,16.6-17.8,27.9c-3.2,8.6-2.7,18.2,0.9,26.6c3.7,8.5,8.7,19.6,13.7,28.4
						C2030.2,748.4,2045.8,750,2045.8,750z"/>
				</g>
				
					<linearGradient id="SVGID_19_" gradientUnits="userSpaceOnUse" x1="5047.354" y1="2672.1436" x2="5319.9751" y2="2672.1436" gradientTransform="matrix(-0.447 0.8946 -0.8946 -0.447 6887.7129 -2292.5178)">
					<stop  offset="0" style="stop-color:#FEBBBA"/>
					<stop  offset="1" style="stop-color:#FF928E"/>
				</linearGradient>
				<path fill="url(#SVGID_19_)" d="M2435.6,1161.5c0,0-262.3,320.3-458.2-44.4c0,0-3.8-9.3-1.4-22.8c1.2-6.8-3.3-30.9-5.8-43.2
					c-0.8-4,2-7.7,6-8.1l0,0c3.1-0.3,6.2,1,8.2,3.5l35.8,45.6c2.7,9-1.6,18.6-10.1,22.7l0,0c-5.4,2.6-7.1,9.5-3.5,14.2
					c149,195.3,398.3-19,402.8-16.5C2425.6,1121.5,2444.3,1131.3,2435.6,1161.5z"/>
			</g>
			<g>
				<linearGradient id="SVGID_20_" gradientUnits="userSpaceOnUse" x1="3409.8936" y1="1482.7241" x2="2936.4739" y2="2011.5444">
					<stop  offset="0" style="stop-color:#09005D"/>
					<stop  offset="1" style="stop-color:#1A0F91"/>
				</linearGradient>
				<path fill="url(#SVGID_20_)" d="M2278.6,3239.5c5.7,0,10.3-3.6,10.3-8.1v-970c0-4.5-4.6-8.1-10.3-8.1c-5.7,0-10.3,3.6-10.3,8.1
					v970C2268.4,3235.8,2273,3239.5,2278.6,3239.5z"/>
				<linearGradient id="SVGID_21_" gradientUnits="userSpaceOnUse" x1="3564.3953" y1="1621.0342" x2="3090.9756" y2="2149.8542">
					<stop  offset="0" style="stop-color:#09005D"/>
					<stop  offset="1" style="stop-color:#1A0F91"/>
				</linearGradient>
				<path fill="url(#SVGID_21_)" d="M2557,3239.5c5.7,0,10.3-3.6,10.3-8.1v-970c0-4.5-4.6-8.1-10.3-8.1c-5.7,0-10.3,3.6-10.3,8.1
					v970C2546.7,3235.8,2551.3,3239.5,2557,3239.5z"/>
				<linearGradient id="SVGID_22_" gradientUnits="userSpaceOnUse" x1="3799.7336" y1="1831.7183" x2="3326.3135" y2="2360.5391">
					<stop  offset="0" style="stop-color:#09005D"/>
					<stop  offset="1" style="stop-color:#1A0F91"/>
				</linearGradient>
				<path fill="url(#SVGID_22_)" d="M3240.8,3245.6c1.3,0,2.7-0.2,4-0.6c5.2-1.8,7.7-6.5,5.4-10.6L2725,2258.2
					c-2.2-4.1-8.3-6-13.5-4.3c-5.2,1.8-7.7,6.5-5.4,10.6l525.2,976.1C3233,3243.8,3236.8,3245.6,3240.8,3245.6z"/>
				<linearGradient id="SVGID_23_" gradientUnits="userSpaceOnUse" x1="3619.6523" y1="1670.4998" x2="3146.2324" y2="2199.3201">
					<stop  offset="0" style="stop-color:#09005D"/>
					<stop  offset="1" style="stop-color:#1A0F91"/>
				</linearGradient>
				<path fill="url(#SVGID_23_)" d="M2916.4,3245.6c1.3,0,2.7-0.2,4-0.6c5.2-1.8,7.7-6.5,5.4-10.6l-525.2-976.1
					c-2.2-4.1-8.3-6-13.5-4.3c-5.2,1.8-7.7,6.5-5.4,10.6l525.2,976.1C2908.6,3243.8,2912.4,3245.6,2916.4,3245.6z"/>
				<linearGradient id="SVGID_24_" gradientUnits="userSpaceOnUse" x1="3292.3047" y1="1377.4508" x2="2818.8857" y2="1906.2704">
					<stop  offset="0" style="stop-color:#09005D"/>
					<stop  offset="1" style="stop-color:#1A0F91"/>
				</linearGradient>
				<path fill="url(#SVGID_24_)" d="M2262.7,2270.3h481.1c8,0,14.5-5.1,14.5-11.4l0,0c0-6.3-6.5-11.4-14.5-11.4h-481.1
					c-8,0-14.5,5.1-14.5,11.4l0,0C2248.2,2265.2,2254.7,2270.3,2262.7,2270.3z"/>
				<linearGradient id="SVGID_25_" gradientUnits="userSpaceOnUse" x1="3439.8567" y1="1509.5454" x2="2966.4365" y2="2038.366">
					<stop  offset="0" style="stop-color:#09005D"/>
					<stop  offset="1" style="stop-color:#1A0F91"/>
				</linearGradient>
				<path fill="url(#SVGID_25_)" d="M2470.5,2418.7h325.4c5.7,0,10.3-3.6,10.3-8.1c0-4.5-4.6-8.1-10.3-8.1h-325.4
					c-5.7,0-10.3,3.6-10.3,8.1C2460.2,2415.1,2464.8,2418.7,2470.5,2418.7z"/>
				<linearGradient id="SVGID_26_" gradientUnits="userSpaceOnUse" x1="3587.0217" y1="1641.2906" x2="3113.6016" y2="2170.1113">
					<stop  offset="0" style="stop-color:#09005D"/>
					<stop  offset="1" style="stop-color:#1A0F91"/>
				</linearGradient>
				<rect x="2570.3" y="2587.1" fill="url(#SVGID_26_)" width="325.4" height="16.2"/>
				<linearGradient id="SVGID_27_" gradientUnits="userSpaceOnUse" x1="3732.416" y1="1771.4561" x2="3258.9968" y2="2300.2756">
					<stop  offset="0" style="stop-color:#09005D"/>
					<stop  offset="1" style="stop-color:#1A0F91"/>
				</linearGradient>
				<rect x="2667" y="2771.7" fill="url(#SVGID_27_)" width="325.4" height="16.2"/>
				<linearGradient id="SVGID_28_" gradientUnits="userSpaceOnUse" x1="3880.4246" y1="1903.9576" x2="3407.0054" y2="2432.7773">
					<stop  offset="0" style="stop-color:#09005D"/>
					<stop  offset="1" style="stop-color:#1A0F91"/>
				</linearGradient>
				<path fill="url(#SVGID_28_)" d="M2768.3,2972.6h325.4c5.7,0,10.3-3.6,10.3-8.1c0-4.5-4.6-8.1-10.3-8.1h-325.4
					c-5.7,0-10.3,3.6-10.3,8.1C2758.1,2968.9,2762.7,2972.6,2768.3,2972.6z"/>
				<linearGradient id="SVGID_29_" gradientUnits="userSpaceOnUse" x1="4026.5671" y1="2034.7891" x2="3553.1475" y2="2563.6094">
					<stop  offset="0" style="stop-color:#09005D"/>
					<stop  offset="1" style="stop-color:#1A0F91"/>
				</linearGradient>
				<path fill="url(#SVGID_29_)" d="M2866.3,3157.2h325.4c5.7,0,10.3-3.6,10.3-8.1c0-4.5-4.6-8.1-10.3-8.1h-325.4
					c-5.7,0-10.3,3.6-10.3,8.1C2856.1,3153.6,2860.7,3157.2,2866.3,3157.2z"/>
			</g>
		</g>
		<g>
			<g>
				<linearGradient id="SVGID_30_" gradientUnits="userSpaceOnUse" x1="1263.222" y1="2916.2551" x2="1251.4697" y2="3060.6384">
					<stop  offset="0" style="stop-color:#09005D"/>
					<stop  offset="1" style="stop-color:#1A0F91"/>
				</linearGradient>
				<path fill="url(#SVGID_30_)" d="M1318.5,3230.4c-32.5-28.3-102.2-50.9-102.2-50.9l-42,0.9c-10.7,12-15.5,35.2-17.5,49.8
					c7.9,4.7,22.7,8.9,49.9,10.2C1257,3242.7,1297.5,3235.4,1318.5,3230.4z"/>
				<linearGradient id="SVGID_31_" gradientUnits="userSpaceOnUse" x1="1242.3303" y1="3263.6079" x2="1244.0093" y2="3043.675">
					<stop  offset="0" style="stop-color:#09005D"/>
					<stop  offset="1" style="stop-color:#1A0F91"/>
				</linearGradient>
				<path fill="url(#SVGID_31_)" d="M1318.5,3230.4c-21,5-61.6,12.4-111.8,10c-27.2-1.3-42-5.4-49.9-10.2c-0.2,1.2-0.3,2.3-0.4,3.3
					c-0.7,6,2.9,11.6,8.7,13.3c38.3,11.8,122.7,8,155.5,5.9c7-0.4,10.7-8.7,6.2-14.1C1324.4,3235.9,1321.6,3233.1,1318.5,3230.4z"/>
			</g>
			<linearGradient id="SVGID_32_" gradientUnits="userSpaceOnUse" x1="1177.7598" y1="3168.2188" x2="1242.1729" y2="3168.2188">
				<stop  offset="0" style="stop-color:#FEBBBA"/>
				<stop  offset="1" style="stop-color:#FF928E"/>
			</linearGradient>
			<path fill="url(#SVGID_32_)" d="M1194,3144.1l-16.2,33.4c0,6.4,4.5,12,10.8,13.3c6.5,1.4,15.1,2.3,23.5,0.2
				c5.2-1.3,9.1-5.8,9.7-11.2l20.4-35.8H1194z"/>
			<g>
				<linearGradient id="SVGID_33_" gradientUnits="userSpaceOnUse" x1="479.432" y1="3202.0747" x2="613.7419" y2="2988.8574">
					<stop  offset="0" style="stop-color:#09005D"/>
					<stop  offset="1" style="stop-color:#1A0F91"/>
				</linearGradient>
				<path fill="url(#SVGID_33_)" d="M500.4,3150.3c-12.2-27.2-8.7-39.4-32.9-36.7c-2.9,0.3-5.3,0.9-7.4,1.6c-1.5,4.5-1.6,9.5,0,14.2
					c6.1,17.6,10.8,51.7,34.2,81.3c4.9,6.2,12.5,9.8,20.4,10l26.7,0.4C516.2,3200.9,510.5,3172.9,500.4,3150.3z"/>
				<linearGradient id="SVGID_34_" gradientUnits="userSpaceOnUse" x1="637.0444" y1="3034.8975" x2="548.0641" y2="3128.9143">
					<stop  offset="0" style="stop-color:#09005D"/>
					<stop  offset="1" style="stop-color:#1A0F91"/>
				</linearGradient>
				<path fill="url(#SVGID_34_)" d="M543.1,3180.8c-20.5-14.4-20-77.3-20-77.3l-31.5-16.1l-23.8,17.2c-3.7,2.7-6.3,6.5-7.7,10.6
					c2-0.7,4.5-1.3,7.4-1.6c24.2-2.7,20.7,9.5,32.9,36.7c10.1,22.6,15.7,50.6,41,70.8l18.3,0.3c8.2,0.1,13-9.3,8-15.8
					C561.5,3197.4,552.9,3187.7,543.1,3180.8z"/>
			</g>
			<linearGradient id="SVGID_35_" gradientUnits="userSpaceOnUse" x1="486.6831" y1="3081.8208" x2="558.3034" y2="3081.8208">
				<stop  offset="0" style="stop-color:#FEBBBA"/>
				<stop  offset="1" style="stop-color:#FF928E"/>
			</linearGradient>
			<path fill="url(#SVGID_35_)" d="M523.3,3057.8l-35.3,29.6c-2.4,3.7-1.6,8.7,1.9,11.4c6.1,4.8,16.7,10.2,29.6,4.6l38.7-21
				L523.3,3057.8z"/>
			<linearGradient id="SVGID_36_" gradientUnits="userSpaceOnUse" x1="1072.1202" y1="2721.2178" x2="555.751" y2="3179.2705">
				<stop  offset="0" style="stop-color:#09005D"/>
				<stop  offset="1" style="stop-color:#1A0F91"/>
			</linearGradient>
			<path fill="url(#SVGID_36_)" d="M499.9,3072.4l28.9,21.6c4.2,3.9,14.7,4.3,19.4,1c48-34.6,503.1-243.8,593.3-276.5l-68.8-144.5
				C1072.7,2674,487.8,3061.2,499.9,3072.4z"/>
			<linearGradient id="SVGID_37_" gradientUnits="userSpaceOnUse" x1="1538.0713" y1="3308.9827" x2="1235.8894" y2="2855.7104">
				<stop  offset="0" style="stop-color:#09005D"/>
				<stop  offset="1" style="stop-color:#1A0F91"/>
			</linearGradient>
			<path fill="url(#SVGID_37_)" d="M1424.4,2791.7c-53.7-28.8-203.2-53.7-203.2-53.7l-173.9-47.1c0,0-47.8,142.4,35.9,168.1
				s204.6,13.5,255.3,6.8c0,0-67.8,48.7-148.9,284.5c0,0,27.3,0.6,49.5,5.8c0,0,181.1-225.4,200.1-283.6
				C1451.7,2834.2,1469.3,2815.8,1424.4,2791.7z"/>
			<linearGradient id="SVGID_38_" gradientUnits="userSpaceOnUse" x1="1657.1388" y1="2216.6448" x2="1410.9036" y2="2382.2937">
				<stop  offset="0" style="stop-color:#FEBBBA"/>
				<stop  offset="1" style="stop-color:#FF928E"/>
			</linearGradient>
			<path fill="url(#SVGID_38_)" d="M1528.5,2322c-37.6-2.7-151.9,22.2-151.9,22.2l58.7,48.3c0,0,46.3-11.3,77.1-17.3
				C1512.4,2375.2,1588.4,2326.3,1528.5,2322z"/>
			<g>
				<linearGradient id="SVGID_39_" gradientUnits="userSpaceOnUse" x1="1588.4031" y1="2430.458" x2="1572.7335" y2="2228.9927">
					<stop  offset="0" style="stop-color:#FEBBBA"/>
					<stop  offset="1" style="stop-color:#FF928E"/>
				</linearGradient>
				<path fill="url(#SVGID_39_)" d="M1662.8,2356.2c0,0-50.4,46.8-81,59.5c-30.6,12.7-48.5,26.6-67.5-7.3
					c-19-33.9-11.7-70.6,13.7-98c0,0,38.9-42.7,60.5-43.8S1662.8,2356.2,1662.8,2356.2z"/>
				
					<linearGradient id="SVGID_40_" gradientUnits="userSpaceOnUse" x1="5572.0039" y1="5629.3208" x2="5714.1147" y2="5812.2881" gradientTransform="matrix(0.3314 0.9435 -0.9435 0.3314 5129.9692 -4878.1821)">
					<stop  offset="0" style="stop-color:#09005D"/>
					<stop  offset="1" style="stop-color:#1A0F91"/>
				</linearGradient>
				<path fill="url(#SVGID_40_)" d="M1554.7,2314.8l1.6,4.6c0,0,32-32.4,44.6-18.2c12.6,14.1,48.9,74.9,77.1,80.9
					c27.2,5.8,51.8-16.6,53.6-37.6c0.1-1.3-0.9-2.5-2.2-2.7l-3.4-0.5c-2.3-0.3-3-3.3-1.1-4.7c1.8-1.3,1.3-4.2-0.9-4.6
					c-8.5-1.9-23.9-9.6-40.7-39c-23.9-41.7-52.3-64.8-83.3-54.7c-2,0.6-3.8-1.1-3.3-3.1c0.8-4-0.1-9.6-8.4-14.5
					c-14.6-8.6-39.5,5.8-52,40.3c-0.6,1.6-2.6,2.3-4,1.3c-4.9-3.8-14.9-8.4-18.4,14c-3.5,22.8,1.6,33.8,4.2,37.7
					c0.7,1.1,2,1.5,3.2,1l26.7-11.3c1.4-0.6,3,0.1,3.5,1.5L1554.7,2314.8z"/>
				<linearGradient id="SVGID_41_" gradientUnits="userSpaceOnUse" x1="1561.3652" y1="2432.561" x2="1545.6957" y2="2231.0957">
					<stop  offset="0" style="stop-color:#FEBBBA"/>
					<stop  offset="1" style="stop-color:#FF928E"/>
				</linearGradient>
				<path fill="url(#SVGID_41_)" d="M1549.4,2317.9c0,0,34.5-23.2,17.9-36.5c-16.6-13.3-39.5,23.8-36.1,38L1549.4,2317.9z"/>
			</g>
			
				<linearGradient id="SVGID_42_" gradientUnits="userSpaceOnUse" x1="2084.7551" y1="4231.2051" x2="2273.3291" y2="4231.2051" gradientTransform="matrix(0.4098 -0.6959 -0.8617 -0.5074 4648.7959 6059.4434)">
				<stop  offset="0" style="stop-color:#FEBBBA"/>
				<stop  offset="1" style="stop-color:#FF928E"/>
			</linearGradient>
			<path fill="url(#SVGID_42_)" d="M1863.9,2465.8c0,0,28.4,10.1,33.6-6.8c5.2-16.9-9.4-61.9-0.1-68.1c9.3-6.2,25.3-37.3,20.2-51.4
				l-11.6,11c0,0,7.9-26-0.8-37.1l-22,56.6C1883.3,2369.9,1854.1,2437.2,1863.9,2465.8z"/>
			<linearGradient id="SVGID_43_" gradientUnits="userSpaceOnUse" x1="1462.1084" y1="2886.1204" x2="1455.3931" y2="2404.8423">
				<stop  offset="0" style="stop-color:#FF928E"/>
				<stop  offset="1" style="stop-color:#FE7062"/>
			</linearGradient>
			<path fill="url(#SVGID_43_)" d="M1351.5,2353.4c0,0,50.6-55.8,161.1,31.3c76.2,60,350.6,47.8,350.6,47.8s-0.1,15.5,5.2,34.3
				c0,0-230.3,62.3-403.2,20c0,0-191,216.5-205.7,258.9c0,0-124.1,18.5-212.1-54.9c0,0,23.6-73.2,100-158.1
				C1246.6,2422.6,1351.5,2353.4,1351.5,2353.4z"/>
			<linearGradient id="SVGID_44_" gradientUnits="userSpaceOnUse" x1="1719.9784" y1="1918.1472" x2="1300.2582" y2="2687.0742">
				<stop  offset="0" style="stop-color:#E1473D"/>
				<stop  offset="1" style="stop-color:#E9605A"/>
			</linearGradient>
			<path fill="url(#SVGID_44_)" d="M1378,2465c-0.9-0.3-1.4-1.3-1.2-2.3c0.3-1,1.3-1.6,2.3-1.3c0.7,0.2,65.8,18.5,76,21
				c1,0.3,1.6,1.3,1.4,2.3c-0.3,1-1.3,1.6-2.3,1.4c-10.3-2.6-75.5-20.9-76.1-21C1378.1,2465,1378,2465,1378,2465z"/>
		</g>
	</g>
</g>
</svg>
