<svg id="Layer_1" data-name="Layer 1" xmlns="http://www.w3.org/2000/svg" viewBox="0 0 123.8712 64.1667"><defs><style>.cls-1{fill:#369;}</style></defs><title>WiresPOS</title><path class="cls-1" d="M180.8333,322.6667l37.1667,1,14.3333-39,2.5626-6.3a5.67,5.67,0,0,1,5.2521-3.5336h21.4278a10.4361,10.4361,0,0,1,7.693,3.3842h0a1.4509,1.4509,0,0,1,.3154,1.4132h0A65.3407,65.3407,0,0,1,263.5,293.3333h0l-23.3333.1667-5.3334,14.1667,51.6667.1666h0a60.0518,60.0518,0,0,0,13.5748-19.9508h0a90.4647,90.4647,0,0,0,3.0834-8.5874l1.0383-3.4264a11.8218,11.8218,0,0,0,.1188-6.4372l-.0391-.1485a11.669,11.669,0,0,0-2.8683-5.1289l-.06-.0624a15.4448,15.4448,0,0,0-4.2358-3.1189h0a13.95,13.95,0,0,0-6.2388-1.4728H203Z" transform="translate(-180.8333 -259.5)"/></svg>