<svg fill="#000000" xmlns="http://www.w3.org/2000/svg"  viewBox="0 0 48 48" width="36px" height="36px"><path d="M 16.5 4 C 14.032499 4 12 6.0324991 12 8.5 L 12 19 L 10.5 19 A 1.50015 1.50015 0 1 0 10.5 22 L 37.5 22 A 1.50015 1.50015 0 1 0 37.5 19 L 36 19 L 36 8.5 C 36 6.0324991 33.967501 4 31.5 4 L 16.5 4 z M 16.5 7 L 31.5 7 C 32.346499 7 33 7.6535009 33 8.5 L 33 19 L 31 19 L 31 16 C 31 14.343 29.657 13 28 13 L 23 13 L 23 19 L 21 19 L 21 13 L 20 13 C 18.343 13 17 14.343 17 16 L 17 19 L 15 19 L 15 8.5 C 15 7.6535009 15.653501 7 16.5 7 z M 12 24 L 12 39.5 C 12 41.967501 14.032499 44 16.5 44 L 31.5 44 C 33.967501 44 36 41.967501 36 39.5 L 36 24 L 33 24 L 33 39.5 C 33 40.346499 32.346499 41 31.5 41 L 16.5 41 C 15.653501 41 15 40.346499 15 39.5 L 15 24 L 12 24 z M 17 24 L 17 28 C 17 29.657 18.343 31 20 31 L 21 31 L 21 24 L 17 24 z M 23 24 L 23 31 L 28 31 C 29.657 31 31 29.657 31 28 L 31 24 L 23 24 z M 21.5 35 A 1.50015 1.50015 0 1 0 21.5 38 L 26.5 38 A 1.50015 1.50015 0 1 0 26.5 35 L 21.5 35 z"/></svg>