<?xml version="1.0" encoding="UTF-8"?>
<svg xmlns="http://www.w3.org/2000/svg" xmlns:xlink="http://www.w3.org/1999/xlink" viewBox="0 0 128 128" width="128px" height="128px">
<g id="surface27711439">
<path style=" stroke:none;fill-rule:nonzero;fill:rgb(20%,40.000001%,60.000002%);fill-opacity:1;" d="M 62.957031 66.335938 C 50.152344 53.53125 41.828125 40.792969 43.378906 36.679688 L 6.5 115.613281 C 5.539062 117.671875 5.96875 120.113281 7.574219 121.71875 C 9.179688 123.324219 11.621094 123.753906 13.675781 122.792969 L 92.613281 85.914062 C 88.5 87.464844 75.761719 79.136719 62.957031 66.335938 Z M 62.957031 66.335938 "/>
<path style=" stroke:none;fill-rule:nonzero;fill:rgb(49.411765%,71.764708%,76.862746%);fill-opacity:1;" d="M 80.550781 81.175781 L 6.605469 115.722656 C 6.546875 115.75 6.484375 115.773438 6.421875 115.800781 C 5.570312 117.816406 6.015625 120.160156 7.574219 121.71875 C 9.179688 123.324219 11.621094 123.753906 13.675781 122.792969 L 92.613281 85.914062 C 90.492188 86.714844 86.078125 84.882812 80.550781 81.175781 Z M 80.550781 81.175781 "/>
<path style=" stroke:none;fill-rule:nonzero;fill:rgb(43.137255%,65.098041%,68.627453%);fill-opacity:1;" d="M 74.195312 55.097656 C 87.863281 68.765625 96.429688 82.363281 93.324219 85.464844 C 90.222656 88.566406 76.625 80.003906 62.957031 66.335938 C 49.289062 52.667969 40.722656 39.070312 43.828125 35.96875 C 46.929688 32.863281 60.527344 41.429688 74.195312 55.097656 Z M 74.195312 55.097656 "/>
<path style=" stroke:none;fill-rule:nonzero;fill:rgb(98.823529%,75.686276%,44.313726%);fill-opacity:1;" d="M 70.757812 15.039062 L 71.296875 15.183594 C 72.03125 15.382812 72.03125 16.421875 71.296875 16.617188 L 70.757812 16.765625 C 66.246094 17.980469 62.722656 21.503906 61.507812 26.015625 L 61.363281 26.554688 C 61.164062 27.285156 60.125 27.285156 59.929688 26.554688 L 59.78125 26.015625 C 58.566406 21.503906 55.042969 17.976562 50.53125 16.765625 L 49.992188 16.617188 C 49.257812 16.421875 49.257812 15.382812 49.992188 15.183594 L 50.53125 15.039062 C 55.042969 13.824219 58.566406 10.300781 59.78125 5.789062 L 59.929688 5.25 C 60.125 4.515625 61.164062 4.515625 61.363281 5.25 L 61.507812 5.789062 C 62.722656 10.300781 66.246094 13.824219 70.757812 15.039062 Z M 70.757812 15.039062 "/>
<path style=" stroke:none;fill-rule:nonzero;fill:rgb(89.803922%,60.392159%,36.078432%);fill-opacity:1;" d="M 64.828125 15.546875 C 65.191406 15.644531 65.191406 16.160156 64.828125 16.257812 C 62.960938 16.761719 61.503906 18.21875 61 20.085938 C 60.902344 20.449219 60.386719 20.449219 60.289062 20.085938 C 59.785156 18.21875 58.328125 16.761719 56.460938 16.257812 C 56.097656 16.160156 56.097656 15.644531 56.460938 15.546875 C 58.328125 15.042969 59.785156 13.585938 60.289062 11.71875 C 60.386719 11.355469 60.902344 11.355469 61 11.71875 C 61.503906 13.585938 62.960938 15.042969 64.828125 15.546875 Z M 64.828125 15.546875 "/>
<path style=" stroke:none;fill-rule:nonzero;fill:rgb(98.823529%,75.686276%,44.313726%);fill-opacity:1;" d="M 115.03125 27.34375 L 115.488281 27.46875 C 116.113281 27.636719 116.113281 28.519531 115.488281 28.6875 L 115.03125 28.808594 C 111.195312 29.84375 108.199219 32.839844 107.167969 36.671875 L 107.042969 37.132812 C 106.875 37.753906 105.992188 37.753906 105.824219 37.132812 L 105.703125 36.671875 C 104.667969 32.839844 101.675781 29.84375 97.839844 28.808594 L 97.378906 28.6875 C 96.757812 28.519531 96.757812 27.636719 97.378906 27.46875 L 97.839844 27.34375 C 101.675781 26.3125 104.667969 23.316406 105.703125 19.480469 L 105.824219 19.023438 C 105.992188 18.402344 106.875 18.402344 107.042969 19.023438 L 107.167969 19.480469 C 108.199219 23.316406 111.195312 26.3125 115.03125 27.34375 Z M 115.03125 27.34375 "/>
<path style=" stroke:none;fill-rule:nonzero;fill:rgb(89.803922%,60.392159%,36.078432%);fill-opacity:1;" d="M 109.988281 27.773438 C 110.300781 27.859375 110.300781 28.296875 109.988281 28.378906 C 108.402344 28.808594 107.164062 30.046875 106.738281 31.632812 C 106.65625 31.941406 106.214844 31.941406 106.132812 31.632812 C 105.703125 30.046875 104.464844 28.808594 102.878906 28.378906 C 102.570312 28.296875 102.570312 27.859375 102.878906 27.773438 C 104.464844 27.347656 105.703125 26.109375 106.132812 24.523438 C 106.214844 24.214844 106.65625 24.214844 106.738281 24.523438 C 107.164062 26.109375 108.402344 27.347656 109.988281 27.773438 Z M 109.988281 27.773438 "/>
<path style=" stroke:none;fill-rule:nonzero;fill:rgb(98.823529%,75.686276%,44.313726%);fill-opacity:1;" d="M 47.03125 25.882812 L 47.289062 25.953125 C 47.640625 26.046875 47.640625 26.542969 47.289062 26.640625 L 47.03125 26.707031 C 44.867188 27.289062 43.179688 28.980469 42.597656 31.144531 L 42.527344 31.402344 C 42.433594 31.753906 41.933594 31.753906 41.839844 31.402344 L 41.769531 31.144531 C 41.1875 28.980469 39.496094 27.289062 37.335938 26.707031 L 37.074219 26.640625 C 36.722656 26.542969 36.722656 26.046875 37.074219 25.953125 L 37.335938 25.882812 C 39.496094 25.300781 41.1875 23.609375 41.769531 21.445312 L 41.839844 21.1875 C 41.933594 20.835938 42.429688 20.835938 42.527344 21.1875 L 42.597656 21.445312 C 43.179688 23.609375 44.867188 25.300781 47.03125 25.882812 Z M 47.03125 25.882812 "/>
<path style=" stroke:none;fill-rule:nonzero;fill:rgb(89.803922%,60.392159%,36.078432%);fill-opacity:1;" d="M 44.1875 26.125 C 44.363281 26.171875 44.363281 26.417969 44.1875 26.464844 C 43.292969 26.707031 42.59375 27.40625 42.351562 28.300781 C 42.304688 28.476562 42.058594 28.476562 42.011719 28.300781 C 41.769531 27.40625 41.070312 26.707031 40.175781 26.464844 C 40.003906 26.417969 40.003906 26.171875 40.175781 26.125 C 41.070312 25.882812 41.769531 25.183594 42.011719 24.289062 C 42.058594 24.113281 42.304688 24.113281 42.351562 24.289062 C 42.59375 25.183594 43.292969 25.882812 44.1875 26.125 Z M 44.1875 26.125 "/>
<path style=" stroke:none;fill-rule:nonzero;fill:rgb(98.823529%,75.686276%,44.313726%);fill-opacity:1;" d="M 121.484375 47.261719 L 121.742188 47.332031 C 122.09375 47.425781 122.09375 47.925781 121.742188 48.019531 L 121.484375 48.089844 C 119.320312 48.671875 117.632812 50.363281 117.050781 52.523438 L 116.980469 52.78125 C 116.886719 53.132812 116.386719 53.132812 116.292969 52.78125 L 116.222656 52.523438 C 115.640625 50.359375 113.949219 48.671875 111.789062 48.089844 L 111.53125 48.019531 C 111.179688 47.925781 111.179688 47.425781 111.53125 47.332031 L 111.789062 47.261719 C 113.953125 46.679688 115.640625 44.988281 116.222656 42.828125 L 116.292969 42.570312 C 116.386719 42.21875 116.886719 42.21875 116.980469 42.570312 L 117.050781 42.828125 C 117.632812 44.988281 119.324219 46.679688 121.484375 47.261719 Z M 121.484375 47.261719 "/>
<path style=" stroke:none;fill-rule:nonzero;fill:rgb(89.803922%,60.392159%,36.078432%);fill-opacity:1;" d="M 118.640625 47.503906 C 118.816406 47.550781 118.816406 47.800781 118.640625 47.847656 C 117.746094 48.085938 117.050781 48.785156 116.808594 49.679688 C 116.761719 49.855469 116.511719 49.855469 116.464844 49.679688 C 116.226562 48.785156 115.527344 48.085938 114.632812 47.847656 C 114.457031 47.800781 114.457031 47.550781 114.632812 47.503906 C 115.527344 47.261719 116.226562 46.566406 116.464844 45.671875 C 116.511719 45.496094 116.761719 45.496094 116.808594 45.671875 C 117.046875 46.566406 117.746094 47.261719 118.640625 47.503906 Z M 118.640625 47.503906 "/>
<path style=" stroke:none;fill-rule:nonzero;fill:rgb(98.823529%,75.686276%,44.313726%);fill-opacity:1;" d="M 87.546875 25.007812 L 87.847656 25.089844 C 88.253906 25.199219 88.253906 25.777344 87.847656 25.886719 L 87.546875 25.96875 C 85.035156 26.640625 83.078125 28.601562 82.402344 31.113281 L 82.320312 31.414062 C 82.210938 31.820312 81.632812 31.820312 81.523438 31.414062 L 81.441406 31.113281 C 80.765625 28.601562 78.804688 26.644531 76.296875 25.96875 L 75.996094 25.886719 C 75.589844 25.777344 75.589844 25.199219 75.996094 25.089844 L 76.296875 25.007812 C 78.804688 24.332031 80.765625 22.371094 81.441406 19.863281 L 81.523438 19.5625 C 81.632812 19.15625 82.210938 19.15625 82.320312 19.5625 L 82.402344 19.863281 C 83.078125 22.371094 85.035156 24.332031 87.546875 25.007812 Z M 87.546875 25.007812 "/>
<path style=" stroke:none;fill-rule:nonzero;fill:rgb(89.803922%,60.392159%,36.078432%);fill-opacity:1;" d="M 84.25 25.289062 C 84.449219 25.34375 84.449219 25.632812 84.25 25.683594 C 83.210938 25.964844 82.398438 26.777344 82.121094 27.8125 C 82.066406 28.015625 81.777344 28.015625 81.722656 27.8125 C 81.445312 26.777344 80.632812 25.964844 79.597656 25.683594 C 79.394531 25.632812 79.394531 25.34375 79.597656 25.289062 C 80.632812 25.007812 81.445312 24.199219 81.722656 23.160156 C 81.777344 22.957031 82.066406 22.957031 82.121094 23.160156 C 82.398438 24.199219 83.210938 25.007812 84.25 25.289062 Z M 84.25 25.289062 "/>
<path style=" stroke:none;fill-rule:nonzero;fill:rgb(98.823529%,75.686276%,44.313726%);fill-opacity:1;" d="M 117.046875 70.925781 L 117.585938 71.070312 C 118.320312 71.269531 118.320312 72.308594 117.585938 72.503906 L 117.046875 72.652344 C 112.535156 73.867188 109.011719 77.390625 107.796875 81.902344 L 107.652344 82.441406 C 107.453125 83.175781 106.414062 83.175781 106.21875 82.441406 L 106.074219 81.902344 C 104.859375 77.390625 101.332031 73.867188 96.820312 72.652344 L 96.28125 72.503906 C 95.550781 72.308594 95.550781 71.269531 96.28125 71.070312 L 96.820312 70.925781 C 101.332031 69.710938 104.859375 66.1875 106.074219 61.675781 L 106.21875 61.136719 C 106.414062 60.402344 107.453125 60.402344 107.652344 61.136719 L 107.796875 61.675781 C 109.011719 66.1875 112.535156 69.710938 117.046875 70.925781 Z M 117.046875 70.925781 "/>
<path style=" stroke:none;fill-rule:nonzero;fill:rgb(89.803922%,60.392159%,36.078432%);fill-opacity:1;" d="M 111.117188 71.433594 C 111.484375 71.53125 111.484375 72.046875 111.117188 72.144531 C 109.253906 72.648438 107.792969 74.105469 107.292969 75.972656 C 107.195312 76.335938 106.675781 76.335938 106.578125 75.972656 C 106.074219 74.105469 104.617188 72.648438 102.753906 72.144531 C 102.386719 72.046875 102.386719 71.53125 102.753906 71.433594 C 104.617188 70.929688 106.074219 69.472656 106.578125 67.605469 C 106.675781 67.242188 107.195312 67.242188 107.292969 67.605469 C 107.792969 69.472656 109.25 70.929688 111.117188 71.433594 Z M 111.117188 71.433594 "/>
<path style=" stroke:none;fill-rule:nonzero;fill:rgb(25.882354%,14.901961%,9.411765%);fill-opacity:1;" d="M 60.078125 55.3125 C 59.800781 55.3125 59.527344 55.199219 59.332031 54.976562 C 58.964844 54.566406 59 53.933594 59.410156 53.566406 C 59.550781 53.441406 73.453125 40.761719 67.550781 25.855469 C 67.347656 25.34375 67.597656 24.761719 68.113281 24.558594 C 68.625 24.351562 69.207031 24.605469 69.410156 25.117188 C 75.828125 41.335938 60.894531 54.921875 60.742188 55.058594 C 60.550781 55.226562 60.316406 55.3125 60.078125 55.3125 Z M 60.078125 55.3125 "/>
<path style=" stroke:none;fill-rule:nonzero;fill:rgb(25.882354%,14.901961%,9.411765%);fill-opacity:1;" d="M 68.257812 64.214844 C 68.097656 64.214844 67.9375 64.179688 67.789062 64.101562 C 67.300781 63.84375 67.113281 63.238281 67.371094 62.75 C 67.792969 61.953125 77.882812 43.183594 97.175781 34.496094 C 97.679688 34.269531 98.273438 34.496094 98.5 34.996094 C 98.726562 35.5 98.5 36.09375 97.996094 36.320312 C 79.324219 44.730469 69.242188 63.496094 69.140625 63.683594 C 68.960938 64.023438 68.613281 64.214844 68.257812 64.214844 Z M 68.257812 64.214844 "/>
<path style=" stroke:none;fill-rule:nonzero;fill:rgb(25.882354%,14.901961%,9.411765%);fill-opacity:1;" d="M 74.71875 70.261719 C 74.484375 70.261719 74.25 70.179688 74.058594 70.015625 C 73.644531 69.652344 73.601562 69.019531 73.964844 68.605469 C 74.0625 68.492188 83.785156 57.636719 98.910156 62.769531 C 99.433594 62.945312 99.710938 63.515625 99.535156 64.039062 C 99.359375 64.558594 98.789062 64.839844 98.265625 64.664062 C 84.394531 59.957031 75.558594 69.820312 75.472656 69.921875 C 75.273438 70.148438 74.996094 70.261719 74.71875 70.261719 Z M 74.71875 70.261719 "/>
<path style=" stroke:none;fill-rule:nonzero;fill:rgb(25.882354%,14.901961%,9.411765%);fill-opacity:1;" d="M 11.402344 124.296875 C 9.734375 124.296875 8.089844 123.648438 6.867188 122.425781 C 4.96875 120.53125 4.460938 117.621094 5.59375 115.191406 L 42.472656 36.257812 C 42.472656 36.25 42.476562 36.246094 42.480469 36.242188 C 42.632812 35.859375 42.847656 35.53125 43.121094 35.261719 C 47.277344 31.105469 62.253906 41.742188 74.902344 54.390625 C 87.550781 67.039062 98.183594 82.019531 94.03125 86.171875 C 93.757812 86.445312 93.425781 86.660156 93.042969 86.816406 C 93.042969 86.816406 93.039062 86.820312 93.035156 86.820312 L 14.101562 123.699219 C 13.238281 124.101562 12.316406 124.296875 11.402344 124.296875 Z M 44.21875 37.242188 L 7.40625 116.039062 C 6.625 117.710938 6.976562 119.707031 8.28125 121.011719 C 9.585938 122.316406 11.582031 122.667969 13.253906 121.886719 L 92.050781 85.074219 C 92.105469 85.039062 92.164062 85.011719 92.222656 84.988281 C 92.230469 84.988281 92.234375 84.984375 92.238281 84.984375 C 92.398438 84.925781 92.523438 84.851562 92.617188 84.757812 C 94.667969 82.707031 88.382812 70.699219 73.488281 55.804688 C 58.59375 40.910156 46.585938 34.621094 44.535156 36.675781 C 44.441406 36.769531 44.367188 36.894531 44.308594 37.054688 C 44.285156 37.121094 44.253906 37.183594 44.21875 37.242188 Z M 44.21875 37.242188 "/>
<path style=" stroke:none;fill-rule:nonzero;fill:rgb(25.882354%,14.901961%,9.411765%);fill-opacity:1;" d="M 60.644531 28.101562 C 59.84375 28.101562 59.171875 27.585938 58.960938 26.816406 L 58.816406 26.273438 C 57.699219 22.121094 54.425781 18.847656 50.273438 17.730469 L 49.730469 17.582031 C 48.960938 17.375 48.441406 16.699219 48.441406 15.902344 C 48.445312 15.101562 48.960938 14.425781 49.734375 14.21875 L 50.273438 14.074219 C 54.425781 12.957031 57.699219 9.679688 58.816406 5.527344 L 58.960938 4.988281 C 59.171875 4.21875 59.847656 3.699219 60.644531 3.699219 C 61.441406 3.699219 62.117188 4.21875 62.328125 4.988281 L 62.472656 5.527344 C 63.589844 9.679688 66.863281 12.957031 71.015625 14.074219 L 71.558594 14.21875 C 72.328125 14.425781 72.847656 15.101562 72.847656 15.902344 C 72.847656 16.699219 72.328125 17.375 71.558594 17.585938 L 71.019531 17.730469 C 66.863281 18.847656 63.589844 22.121094 62.472656 26.273438 L 62.328125 26.816406 C 62.117188 27.585938 61.445312 28.101562 60.644531 28.101562 Z M 60.894531 26.292969 L 60.898438 26.292969 Z M 51.15625 15.902344 C 55.699219 17.257812 59.289062 20.847656 60.644531 25.390625 C 62 20.847656 65.589844 17.257812 70.132812 15.902344 C 65.589844 14.546875 62 10.957031 60.644531 6.414062 C 59.289062 10.957031 55.699219 14.546875 51.15625 15.902344 Z M 51.15625 15.902344 "/>
<path style=" stroke:none;fill-rule:nonzero;fill:rgb(25.882354%,14.901961%,9.411765%);fill-opacity:1;" d="M 106.433594 38.597656 C 105.6875 38.597656 105.054688 38.113281 104.859375 37.390625 L 104.738281 36.933594 C 103.800781 33.453125 101.058594 30.710938 97.578125 29.777344 L 97.121094 29.652344 C 96.398438 29.457031 95.914062 28.824219 95.914062 28.078125 C 95.914062 27.328125 96.398438 26.695312 97.121094 26.503906 L 97.578125 26.378906 C 101.058594 25.441406 103.800781 22.699219 104.738281 19.222656 L 104.859375 18.765625 C 105.054688 18.042969 105.6875 17.558594 106.433594 17.558594 C 107.183594 17.558594 107.816406 18.042969 108.007812 18.765625 L 108.132812 19.222656 C 109.070312 22.699219 111.8125 25.441406 115.289062 26.378906 L 115.75 26.503906 C 116.46875 26.699219 116.953125 27.328125 116.953125 28.078125 C 116.953125 28.824219 116.46875 29.457031 115.746094 29.652344 L 115.289062 29.777344 C 111.8125 30.710938 109.070312 33.453125 108.132812 36.933594 L 108.007812 37.390625 C 107.816406 38.113281 107.183594 38.597656 106.433594 38.597656 Z M 106.789062 36.871094 L 106.796875 36.871094 Z M 98.863281 28.078125 C 102.410156 29.289062 105.222656 32.101562 106.433594 35.648438 C 107.648438 32.101562 110.460938 29.289062 114.007812 28.078125 C 110.460938 26.863281 107.648438 24.054688 106.433594 20.503906 C 105.222656 24.054688 102.410156 26.863281 98.863281 28.078125 Z M 98.863281 28.078125 "/>
<path style=" stroke:none;fill-rule:nonzero;fill:rgb(25.882354%,14.901961%,9.411765%);fill-opacity:1;" d="M 42.183594 32.664062 C 41.5625 32.664062 41.035156 32.261719 40.875 31.664062 L 40.804688 31.402344 C 40.316406 29.589844 38.886719 28.160156 37.074219 27.675781 L 36.8125 27.601562 C 36.214844 27.441406 35.8125 26.914062 35.8125 26.292969 C 35.8125 25.671875 36.214844 25.148438 36.8125 24.984375 L 37.074219 24.914062 C 38.886719 24.425781 40.316406 23 40.804688 21.183594 L 40.871094 20.929688 C 41.035156 20.328125 41.5625 19.921875 42.183594 19.921875 C 42.804688 19.921875 43.328125 20.328125 43.492188 20.925781 L 43.5625 21.1875 C 44.050781 22.996094 45.476562 24.425781 47.289062 24.914062 L 47.550781 24.984375 C 48.148438 25.148438 48.554688 25.671875 48.554688 26.292969 C 48.554688 26.914062 48.148438 27.441406 47.550781 27.601562 L 47.292969 27.671875 C 45.476562 28.160156 44.050781 29.589844 43.5625 31.402344 L 43.492188 31.660156 C 43.328125 32.261719 42.804688 32.664062 42.183594 32.664062 Z M 39.023438 26.296875 C 40.375 26.992188 41.484375 28.101562 42.183594 29.457031 C 42.878906 28.101562 43.988281 26.992188 45.34375 26.296875 C 43.988281 25.597656 42.878906 24.488281 42.183594 23.132812 C 41.484375 24.488281 40.375 25.597656 39.023438 26.296875 Z M 37.335938 25.671875 Z M 37.335938 25.671875 "/>
<path style=" stroke:none;fill-rule:nonzero;fill:rgb(25.882354%,14.901961%,9.411765%);fill-opacity:1;" d="M 116.636719 54.046875 C 116.015625 54.046875 115.488281 53.644531 115.328125 53.042969 L 115.257812 52.785156 C 114.769531 50.972656 113.339844 49.542969 111.527344 49.054688 L 111.269531 48.984375 C 110.667969 48.824219 110.265625 48.296875 110.265625 47.675781 C 110.265625 47.054688 110.667969 46.527344 111.269531 46.367188 L 111.527344 46.296875 C 113.339844 45.808594 114.769531 44.378906 115.257812 42.566406 L 115.328125 42.308594 C 115.488281 41.707031 116.015625 41.304688 116.636719 41.304688 C 117.257812 41.304688 117.785156 41.707031 117.945312 42.308594 L 118.015625 42.566406 C 118.503906 44.378906 119.933594 45.808594 121.746094 46.296875 L 122.003906 46.367188 C 122.605469 46.527344 123.007812 47.054688 123.007812 47.675781 C 123.007812 48.296875 122.605469 48.824219 122.003906 48.984375 L 121.746094 49.054688 C 119.933594 49.542969 118.503906 50.972656 118.015625 52.785156 L 117.945312 53.042969 C 117.785156 53.644531 117.257812 54.046875 116.636719 54.046875 Z M 113.476562 47.675781 C 114.832031 48.371094 115.941406 49.480469 116.636719 50.835938 C 117.332031 49.480469 118.441406 48.371094 119.796875 47.675781 C 118.441406 46.980469 117.332031 45.871094 116.636719 44.515625 C 115.941406 45.871094 114.832031 46.980469 113.476562 47.675781 Z M 121.484375 48.296875 L 121.492188 48.296875 Z M 121.484375 48.296875 "/>
<path style=" stroke:none;fill-rule:nonzero;fill:rgb(25.882354%,14.901961%,9.411765%);fill-opacity:1;" d="M 81.921875 32.71875 C 81.273438 32.71875 80.726562 32.296875 80.558594 31.671875 L 80.476562 31.371094 C 79.894531 29.214844 78.195312 27.511719 76.035156 26.933594 L 75.738281 26.851562 C 75.109375 26.683594 74.691406 26.132812 74.691406 25.488281 C 74.691406 24.839844 75.109375 24.289062 75.738281 24.121094 L 76.039062 24.042969 C 78.195312 23.460938 79.894531 21.757812 80.476562 19.601562 L 80.558594 19.300781 C 80.726562 18.675781 81.273438 18.253906 81.921875 18.253906 C 82.570312 18.257812 83.117188 18.675781 83.285156 19.300781 L 83.367188 19.601562 C 83.949219 21.757812 85.648438 23.460938 87.804688 24.042969 L 88.105469 24.121094 C 88.730469 24.289062 89.152344 24.839844 89.152344 25.488281 C 89.152344 26.132812 88.730469 26.683594 88.105469 26.851562 L 87.804688 26.933594 C 85.648438 27.511719 83.949219 29.214844 83.367188 31.371094 L 83.285156 31.671875 C 83.117188 32.296875 82.570312 32.71875 81.921875 32.71875 Z M 77.890625 25.488281 C 79.664062 26.3125 81.097656 27.746094 81.921875 29.519531 C 82.746094 27.746094 84.179688 26.3125 85.953125 25.488281 C 84.179688 24.660156 82.746094 23.226562 81.921875 21.457031 C 81.097656 23.230469 79.664062 24.660156 77.890625 25.488281 Z M 77.890625 25.488281 "/>
<path style=" stroke:none;fill-rule:nonzero;fill:rgb(25.882354%,14.901961%,9.411765%);fill-opacity:1;" d="M 106.933594 83.988281 C 106.136719 83.988281 105.460938 83.472656 105.253906 82.699219 L 105.109375 82.160156 C 103.988281 78.007812 100.714844 74.734375 96.5625 73.617188 L 96.023438 73.46875 C 95.25 73.261719 94.734375 72.585938 94.734375 71.789062 C 94.734375 70.992188 95.25 70.3125 96.023438 70.105469 L 96.5625 69.960938 C 100.714844 68.84375 103.988281 65.570312 105.105469 61.414062 L 105.253906 60.875 C 105.460938 60.105469 106.136719 59.585938 106.933594 59.585938 C 107.734375 59.585938 108.410156 60.105469 108.617188 60.875 L 108.761719 61.414062 C 109.878906 65.566406 113.15625 68.84375 117.308594 69.960938 L 117.847656 70.105469 C 118.617188 70.3125 119.136719 70.992188 119.136719 71.789062 C 119.136719 72.585938 118.617188 73.261719 117.847656 73.46875 L 117.308594 73.617188 C 113.15625 74.734375 109.882812 78.007812 108.761719 82.160156 L 108.617188 82.699219 C 108.410156 83.472656 107.734375 83.988281 106.933594 83.988281 Z M 97.445312 71.789062 C 101.992188 73.144531 105.578125 76.734375 106.933594 81.277344 C 108.292969 76.730469 111.878906 73.144531 116.421875 71.789062 C 111.878906 70.429688 108.292969 66.84375 106.933594 62.300781 C 105.578125 66.84375 101.992188 70.429688 97.445312 71.789062 Z M 117.328125 72.039062 L 117.332031 72.039062 Z M 117.328125 72.039062 "/>
</g>
</svg>
